<?xml version="1.0" encoding="utf-8"?>
<!-- Generator: Adobe Illustrator 25.0.0, SVG Export Plug-In . SVG Version: 6.00 Build 0)  -->
<svg version="1.1" xmlns="http://www.w3.org/2000/svg" xmlns:xlink="http://www.w3.org/1999/xlink" x="0px" y="0px"
	 viewBox="0 0 595.28 841.89" style="enable-background:new 0 0 595.28 841.89;" xml:space="preserve">
<style type="text/css">
	.st0{fill:#FFFFFF;}
</style>
<g id="Vrstva_2">
	<g>
		<path class="st0" d="M240.73,812.22c-31.38-4.59-62.76-9.17-94.16-13.76c37.89-259.19,75.78-518.38,113.68-777.66
			c71.7,10.48,143.41,20.96,215.31,31.47c-31.68,216.75-63.38,433.6-95.08,650.45c-0.08-0.61-0.27-1.22-0.21-1.82
			c2.51-27.35-1.12-52.69-7.99-76.92c-3.19-11.24-6.81-22.19-10.06-33.39c-1.85-6.36-1.88-13.27-0.04-20.1
			c2.94-10.89,6.13-21.69,9.38-32.45c4.94-16.36,9.32-32.83,10.45-50.21c1.49-22.88-3.06-41.55-16.96-53.38
			c-4.34-3.69-8.87-7.19-13.67-9.66c-7.55-3.88-15.41-6.82-23.47-10.29c0.19-1.28,0.41-3,0.69-4.71c0.49-2.95-0.66-2.98-2.29-2.47
			c-0.53,3.62-1.03,7.08-1.55,10.59c0.75,0.48,1.43,0.92,2.87,1.85c-1.66,0.25-2.44,0.36-3.15,0.47c-0.63,4.29-1.21,8.28-1.79,12.23
			c0.79,0.38,1.43,0.69,2.67,1.29c-1.46,0.52-2.32,0.82-2.99,1.06c-0.48,3.26-0.9,6.17-1.3,8.92c0.97,0.46,1.75,0.83,2.53,1.21
			c-0.07,0.25-0.13,0.5-0.2,0.75c-0.91,0.1-1.81,0.2-2.7,0.3c-0.54,3.71-1.05,7.16-1.54,10.56c0.9,0.46,1.66,0.84,2.42,1.23
			c-0.05,0.2-0.11,0.39-0.16,0.59c-0.9,0.17-1.79,0.33-2.54,0.47c-0.49,3.38-0.94,6.41-1.37,9.35c0.92,0.52,1.66,0.94,2.4,1.35
			c-0.06,0.19-0.11,0.39-0.17,0.58c-0.83,0.02-1.66,0.05-2.6,0.08c-0.38,2.63-0.73,4.99-1.07,7.34c0.94,0.54,1.77,1.01,2.61,1.49
			c-0.06,0.19-0.13,0.38-0.19,0.57c-0.92,0.06-1.84,0.12-2.66,0.17c-0.43,2.94-0.81,5.56-1.18,8.08c1.05,0.52,1.88,0.94,2.72,1.36
			c-0.07,0.32-0.14,0.64-0.22,0.96c-1,0.22-2.01,0.44-2.92,0.65c-0.39,2.67-0.75,5.15-0.93,6.38c2.92,2.61,5.63,4.35,7.71,7.03
			c6.84,8.81,10.41,20.04,10.66,33.68c0.45,25.53-12.37,49.81-30.51,57.31c-1.89,0.78-2.75,1.8-3.15,4.58
			c-3.6,25.24-7.32,50.46-11,75.69c-0.17,1.15-0.21,2.31-0.34,3.67c3.48,0.51,6.73,0.89,9.96,1.48c4.46,0.81,9.01,1.34,13.29,2.89
			c1.85,0.67,3.82,3.15,4.49,5.59c0.99,3.66,1.89,6.94,4.65,8.18c-0.89,8.78-1.45,9.41-7.35,8.55
			c-27.08-3.96-54.16-7.92-81.24-11.88c-0.96-0.14-1.94-0.21-2.85-0.53c-1.78-0.64-2.67-2.25-2.31-4.99
			c0.21-1.59,0.46-3.18,0.69-4.78c0.2,0.25,0.4,0.49,0.6,0.74c1.71-1.76,3.87-3.11,5.04-5.37c2.14-4.13,4.7-6.28,8.05-6.18
			c3.48,0.1,6.93,0.55,10.38,0.98c4.09,0.51,8.17,1.17,12.28,1.78c0.23-0.98,0.39-1.48,0.47-1.99c3.81-26.03,7.59-52.07,11.47-78.09
			c0.37-2.45-0.41-3.24-1.61-4.24c-6.86-5.76-11.85-13.56-14.46-24.49c-3.01-12.6-2.89-25.3,1.14-38.21
			c5.68-18.22,15.15-30.29,29.56-34.77c0.25-1.71,0.61-4.18,0.96-6.58c-1.03-0.57-1.87-1.03-2.72-1.5c0.07-0.32,0.13-0.64,0.2-0.96
			c0.98-0.19,1.95-0.37,3-0.57c0.4-2.73,0.78-5.36,1.17-7.97c-0.96-0.39-1.78-0.72-2.6-1.06c0.04-0.23,0.07-0.46,0.11-0.69
			c0.96-0.15,1.93-0.3,2.77-0.43c0.4-2.7,0.74-5.07,1.08-7.37c-0.97-0.41-1.76-0.75-2.55-1.08c0.06-0.25,0.12-0.5,0.18-0.75
			c0.9-0.06,1.8-0.12,2.73-0.18c0.47-3.24,0.92-6.29,1.39-9.48c-0.91-0.38-1.74-0.72-2.56-1.07c0.03-0.23,0.06-0.46,0.09-0.7
			c0.95-0.16,1.91-0.32,2.75-0.46c0.55-3.76,1.05-7.21,1.55-10.57c-0.9-0.39-1.65-0.71-2.4-1.03c0.02-0.22,0.04-0.45,0.07-0.67
			c0.87-0.2,1.75-0.4,2.72-0.62c0.43-2.92,0.85-5.84,1.3-8.92c-0.73-0.42-1.43-0.83-2.13-1.24c0.04-0.23,0.07-0.45,0.11-0.68
			c0.78-0.1,1.55-0.19,2.32-0.29c0.62-4.27,1.21-8.26,1.78-12.18c-0.77-0.47-1.42-0.87-2.51-1.54c1.39-0.43,2.19-0.67,2.84-0.88
			c0.55-3.78,1.06-7.24,1.61-10.99c-4.67-0.47-2.07,5.82-4.47,7.58c-10.58-0.08-21.46,0.92-32.36,4.4
			c-16.27,5.19-29.3,16.42-36.54,38.78c-3.28,10.14-5.73,20.62-6.23,31.3c-0.73,15.59-1.46,31.3-0.83,46.67
			c0.81,19.8-3.43,36.26-14.86,50.48c-5.42,6.74-9.94,14.91-14.76,22.55c-15.99,25.36-25.44,54.27-29.32,86.16
			c-1.84,15.09-1.55,29.89,0.86,44.21c3.2,18.96,11.36,33.39,21.61,45.29c11.96,13.89,26.55,21.63,41.95,26.99
			C231.73,809.34,236.24,810.74,240.73,812.22z M335.4,118.63c-2.7-0.52-5.95,0.82-6.19-4.67c-0.01-0.33-0.32-0.83-0.52-0.84
			c-2.07-0.07-4.28-0.77-6.18,0.14c-2.16,1.04-3.37,6.73-2.97,10.56c0.34,3.3,1.94,4.08,4.08,4.8c3.19,1.08,4.4-1.73,5.53-4.7
			c1.9,0.28,3.59,0.52,5.6,0.82c-1.07,5.53-2.22,10.78-3.04,16.09c-0.27,1.74-0.06,3.92,0.54,5.37c2.42,5.87,3.79,12.09,3.18,19.26
			c-0.11,1.28-0.06,2.57-0.09,3.79c8.91,1.3,17.5,2.56,26.07,3.81c4.18-13.38,5.45-15.91,9.68-21.13c1-1.23,1.84-3.28,2.08-5.04
			c0.75-5.43,1.18-10.9,1.74-16.38c1.6,0.23,2.74,0.4,3.83,0.56c0.7,5.66,1.67,6.8,5.66,6.22c2.94-0.43,3.87-3.71,4.55-6.94
			c0.88-4.2-0.08-8.01-2.04-8.94c-3.19-1.53-5.09-0.6-7.21,3.53c-1.19-0.17-2.39-0.35-3.6-0.53c1.02-6.97,2-13.7,3-20.49
			c1.42,0.21,2.54,0.37,3.65,0.53c-0.22,0.27-0.44,0.54-0.65,0.81c0.86,1.85,1.4,4.67,2.66,5.32c1.95,1.01,4.91,2.12,6.3-1.76
			c1.18-3.28,1.61-7.2,1.69-10.77c0.03-1.27-1.86-3.01-3.11-3.32c-1.47-0.36-3.93-0.13-4.66,1.17c-1.58,2.8-2.81,2.35-4.77,1.48
			c1.19-6.01,2.3-11.83,3.55-17.61c0.16-0.76,1.07-1.31,1.64-1.95c0.45,0.81,1.26,1.56,1.28,2.45c0.08,2.86,1.14,3.73,3.05,3.94
			c2.18,0.24,4.55,0.84,5.67-2.68c0.89-2.79,1.48-6.13,1.23-8.93c-0.16-1.74-1.96-3.59-3.36-4.18c-1.64-0.69-3.81-1.27-5.11,2.29
			c-0.31,0.85-1.39,1.25-2.12,1.86c-0.18-0.32-0.36-0.63-0.54-0.95c2.04-8.58,4.08-17.16,6.25-26.26
			c-6.59,1.61-11.59-1.82-16.51-5.63c-2.03-1.57-4.12-3.19-6.78-1.11c-0.31,0.24-0.84-0.11-1.27-0.19
			c-2.08-0.36-4.16-1.25-6.23-0.94c-3.49,0.51-6.97,2.18-10.45,2.6c-2.53,0.31-5.05-0.61-7.54-0.97c-0.51,8.68-1.02,17.49-1.6,27.44
			c-1.78-1.17-3.75-1.7-3.78-2.6c-0.17-5.22-3.17-4-5.33-4.28c-2.48-0.32-4.25,2.66-4.91,7.59c-0.62,4.64,0.37,7.41,2.77,8.17
			c3.1,0.98,5.75,0.63,6.99-5.74c1.57,1.39,3.63,2.29,3.6,3.33c-0.22,6.12-0.94,12.27-1.61,19.78c-2.29-1.47-4.52-1.89-5.37-3.67
			c-1.33-2.78-5.32-4.97-7.44-2.63c-2.83,3.12-3.08,7.36-2.81,11.59c0.24,3.71,2.44,3.88,4.55,4.54c3.33,1.03,3.95-2.54,5.01-5.38
			c1.78,0.26,3.45,0.5,5.38,0.79C337.4,104.96,336.42,111.61,335.4,118.63z M292.71,598.23c-4.43-0.65-8.59-1.26-12.94-1.89
			c-3.86,26.43-7.76,53.06-11.67,79.85c4.36,0.64,8.58,1.25,12.94,1.89C284.95,651.33,288.82,624.8,292.71,598.23z M292.63,507.18
			c-3.69,25.22-7.33,50-10.84,74.81c-0.13,0.92,0.92,2.69,1.68,2.92c2.51,0.76,5.14,0.95,7.72,1.45c2.43,0.47,3.59-0.56,4.12-4.37
			c3.22-22.94,6.64-45.86,9.98-68.79c0.19-1.3,0.28-2.62,0.44-4.1C301.35,508.45,297.19,507.84,292.63,507.18z M300.56,583.83
			c4.25-1.31,6.07-2.82,11.6-9.55c11.63-14.14,14.97-37.67,7.56-54.22c-1.35-3.02-3.24-5.58-5.02-8.17c-0.76-1.1-1.87-1.74-3.2-2.93
			C307.76,534.56,304.18,559.04,300.56,583.83z M276.27,580.36c3.63-24.83,7.22-49.41,10.81-73.97
			c-5.46-1.43-15.73,11.58-20.17,25.08C260.68,550.43,266.33,573.03,276.27,580.36z M285.8,678.9c4.03-27.54,7.99-54.67,12.03-82.29
			c-1.52,0.32-2.73,0.58-3.85,0.82c-3.97,27.18-7.9,54.05-11.83,80.94C283.43,678.55,284.48,678.71,285.8,678.9z M275.54,593.51
			c-4.03,27.6-8.01,54.81-11.98,81.94c1.32,0.19,2.4,0.35,3.5,0.51c3.96-27.06,7.87-53.82,11.8-80.73
			C277.76,594.65,276.74,594.13,275.54,593.51z M327.9,235.01c4.46,0.65,8.66,1.27,12.88,1.88c1.12-7.63,2.18-14.94,3.27-22.35
			c-4.37-0.64-8.54-1.25-12.88-1.88C330.07,220.15,329,227.47,327.9,235.01z M344.36,212.7c1.12-7.69,2.21-15.13,3.33-22.78
			c-4.32-0.63-8.53-1.25-12.88-1.88c-1.12,7.64-2.22,15.17-3.33,22.78C335.8,211.45,339.89,212.04,344.36,212.7z M306.81,509.23
			c-3.75,25.68-7.46,51.03-11.16,76.35c3.26,0.47,4.35-1.64,4.92-5.78c3.03-21.71,6.28-43.39,9.45-65.08
			c0.23-1.56,0.46-3.12,0.72-4.91C309.26,509.59,308.15,509.42,306.81,509.23z M288.19,506.49c-0.29,1.59-0.58,2.89-0.77,4.2
			c-3.26,22.26-6.52,44.52-9.76,66.78c-0.68,4.64-0.53,4.88,2.96,5.66c3.7-25.3,7.4-50.6,11.13-76.12
			C290.58,506.84,289.57,506.69,288.19,506.49z M322.35,390.27c-2.59,3-5.26-3.56-8.31,0.9c-0.9-2.91-2.63-3.3-4.12-1.74
			c-1.73-0.66-2.94-1.12-4.35-1.66c-0.74,5.04-1.37,9.39-2.02,13.81c1.29,0.19,2.38,0.35,3.61,0.53c0.51-3.47,0.97-6.61,1.43-9.75
			c0.43,0.01,0.86,0.02,1.29,0.03c-0.06,1.3,0.06,2.67-0.24,3.9c-0.47,1.93-1.23,3.75-1.99,5.99c1.75,0.26,2.85,0.42,4.06,0.59
			c0.43-1.49,0.84-2.88,1.24-4.28c0.1,0.04,0.2,0.08,0.3,0.13c-0.1,1.43-0.2,2.85-0.35,4.98c3.22-1.97,6.25,3.56,9.26-2.07
			c0.01,0.91,0.01,1.83,0.02,2.64c1.27,0.19,2.46,0.36,3.75,0.55c0.67-4.57,1.29-8.81,1.95-13.34c-1.33-0.19-2.52-0.37-3.91-0.57
			c-0.42,2.89-0.82,5.6-1.27,8.68C318.78,396.26,324.45,393.74,322.35,390.27z M312.86,337.79c-0.77,5.25-1.52,10.4-2.3,15.71
			c5.9,0.86,11.63,1.7,17.51,2.56c0.78-5.34,1.53-10.48,2.29-15.67c-1.28-0.19-2.38-0.35-3.81-0.56c-0.39,2.68-0.75,5.13-1.11,7.59
			c-0.16-0.04-0.32-0.08-0.48-0.12c0.27-2.51,0.55-5.01,0.83-7.62C321.44,339.04,317.23,338.43,312.86,337.79z M324.51,258.09
			c-1,6.83-1.95,13.32-2.93,20.02c4.39,0.64,8.62,1.26,12.86,1.88c1.01-6.89,1.97-13.46,2.93-20.02
			C332.99,259.33,328.87,258.72,324.51,258.09z M310.31,355.39c-0.77,5.25-1.48,10.13-2.18,14.92c5.91,0.86,11.62,1.7,17.4,2.54
			c0.73-4.97,1.45-9.94,2.18-14.92C321.82,357.07,316.19,356.25,310.31,355.39z M340.48,239.01c-4.45-0.65-8.64-1.26-12.85-1.88
			c-0.96,6.54-1.87,12.76-2.79,19.11c4.37,0.64,8.51,1.24,12.85,1.88C338.62,251.72,339.53,245.48,340.48,239.01z M331.3,301.93
			c-4.36-0.64-8.62-1.26-12.84-1.88c-0.91,6.23-1.78,12.17-2.66,18.17c4.39,0.64,8.52,1.25,12.84,1.88
			C329.54,313.95,330.41,307.98,331.3,301.93z M321.28,280.28c-0.88,6.02-1.73,11.83-2.59,17.73c4.39,0.64,8.59,1.25,12.87,1.88
			c0.89-6.06,1.73-11.86,2.59-17.73C329.77,281.52,325.61,280.91,321.28,280.28z M313.17,335.75c4.53,0.66,8.7,1.27,12.96,1.89
			c0.79-5.4,1.53-10.45,2.29-15.68c-4.35-0.64-8.56-1.25-12.96-1.89C314.69,325.33,313.94,330.48,313.17,335.75z M347.93,188.07
			c0.71-4.89,1.41-9.62,2.13-14.55c-4.37-0.64-8.59-1.26-12.83-1.88c-0.74,5.03-1.42,9.74-2.13,14.55
			C339.47,186.83,343.6,187.44,347.93,188.07z M325.28,375.18c-4.35-0.64-8.52-1.25-12.89-1.88c-0.67,4.56-1.32,9.04-2,13.71
			c4.34,0.63,8.52,1.25,12.89,1.88C323.95,384.26,324.61,379.77,325.28,375.18z M310.39,419.08c-1.4-0.73-2.78-1.45-4.41-2.29
			c-0.72,4.93-1.3,8.91-1.9,13.01c1.33,0.19,2.51,0.37,3.68,0.54c0.39-1.34,0.71-2.43,1.03-3.53c0.11,0.02,0.21,0.05,0.32,0.07
			c-0.06,1.25-0.13,2.49-0.19,3.6c2.82,0.41,5.42,0.79,8.15,1.19c0.62-4.25,1.2-8.23,1.88-12.85c-1.68,0.17-3.32,0.89-4.58,0.34
			C312.75,418.44,311.42,416.43,310.39,419.08z M309.73,416.02c0.43-1.04,0.81-1.95,1.38-3.32c-0.01,1.59-0.02,2.59-0.02,3.52
			c2.77,0.4,5.3,0.77,7.98,1.17c0.56-3.8,1.09-7.44,1.66-11.39c-3.04-0.24-5.81-0.45-8.58-0.67c0.05,0.12,0.1,0.25,0.14,0.37
			c-1.41-0.57-2.82-1.14-4.39-1.78c-0.63,4.31-1.15,7.86-1.69,11.58C307.42,415.69,308.45,415.84,309.73,416.02z M305.38,454.74
			c2.85,0.42,5.39,0.79,8.11,1.19c0.54-3.71,1.06-7.26,1.59-10.88c-2.3-1.17-4.89,0.51-7.01-1.13c-0.32-0.24-1.33,1.05-2.02,1.64
			c0.13-0.31,0.26-0.62,0.4-0.93c-1.33-0.65-2.65-1.3-4.16-2.03c-0.63,4.32-1.15,7.85-1.68,11.5c1.99,0.42,3.88,1.78,4.89-2.22
			C305.45,452.79,305.42,453.71,305.38,454.74z M313.31,458.32c-4.61-0.67-8.75-1.28-13.09-1.91c-0.4,2.75-0.86,5.87-1.48,10.15
			c1.99-0.72,3.53-1.28,4.9-1.78c0.16,0.28,0.52,1.69,1.13,1.85c2.25,0.59,4.59,0.78,7.02,1.13c0.34-1.87,0.59-3.17,0.8-4.48
			C312.86,461.56,313.09,459.83,313.31,458.32z M302.33,441.92c1.89-0.58,3.44-1.06,4.83-1.49c1.62,3.99,5.44,1.08,8.13,3.06
			c0.53-3.61,0.97-6.63,1.45-9.95c-4.24-1.11-8.7-0.11-12.88-2.14C303.35,434.96,302.9,437.98,302.33,441.92z M300.7,484.82
			c1.89,3.35,5.47,0.91,8.19,2.66c0.48-3.3,0.86-5.92,1.19-8.15c-4.35-0.64-8.55-1.25-12.88-1.88c-0.34,2.32-0.73,5.03-1.25,8.57
			C297.76,485.56,299.16,485.21,300.7,484.82z M277.41,689.31c1.19,3.66,2.88,3.04,4.7,1.67c1.11,0.74,2.3,1.19,3.47,0.97
			c0.26-0.05,0.46-2.46,0.68-3.78c-1.29-0.19-2.58-0.38-4.45-0.65c-0.74-2.47-2.5-1.27-4.37,0.7c-1.04-4.05-2.8-2.49-4.56-0.6
			c-0.99-3.65-2.66-2.93-4.53-0.8c-1.15-3.52-2.85-2.75-4.64-1.38c-1.1-0.78-2.28-1.21-3.44-0.98c-0.29,0.06-0.52,2.23-0.77,3.43
			c1.31,0.31,2.61,0.63,4.7,1.13c0.65,1.59,2.22,1.82,4.12-0.91c1.1,3.8,2.8,2.87,4.59,0.83
			C274.03,691.99,275.42,692.34,277.41,689.31z M295.61,488.22c-0.33,2.28-0.71,4.84-1.21,8.27c1.87-0.49,3.36-0.89,4.78-1.27
			c1.75,3.6,5.46,0.8,8.14,2.87c0.46-3.17,0.82-5.63,1.17-7.98C304.26,489.48,300.18,488.89,295.61,488.22z M293.01,506.32
			c1.97-0.69,3.44-1.2,4.54-1.58c2.09,3.47,5.63,1.17,8.34,2.98c0.44-3.04,0.8-5.5,1.13-7.76c-4.39-0.64-8.59-1.26-13.07-1.91
			c-0.18,1.24-0.4,2.56-0.56,3.88C293.26,502.99,293.2,504.06,293.01,506.32z M302.43,474.72c0.25,1.6,2.24,2.36,7.97,2.02
			c0.35-2.42,0.71-4.87,1.02-6.97c-4.4-0.64-8.59-1.26-12.9-1.89c-0.33,2.28-0.68,4.64-1.14,7.79
			C299.16,475.34,300.63,475.07,302.43,474.72z M353.45,190.75c-1.15,7.85-2.25,15.37-3.37,23.06c1.39,0.11,2.49,0.2,3.69,0.3
			c1.14-7.83,2.23-15.24,3.34-22.83C355.8,191.1,354.7,190.94,353.45,190.75z M348.77,190.02c-1.14,7.83-2.23,15.27-3.33,22.77
			c1.26,0.18,2.33,0.34,3.5,0.51c1.13-7.75,2.22-15.19,3.33-22.77C351.05,190.35,350.02,190.2,348.77,190.02z M345.19,214.67
			c-1.13,7.7-2.21,15.11-3.28,22.41c1.28,0.19,2.36,0.35,3.48,0.51c1.11-7.6,2.18-14.89,3.28-22.41
			C347.48,215,346.47,214.86,345.19,214.67z M350.25,238.44c1.12-7.66,2.18-14.93,3.29-22.49c-1.32-0.19-2.5-0.36-3.8-0.56
			c-1.1,7.56-2.18,14.94-3.29,22.49C347.73,238.07,348.84,238.23,350.25,238.44z M343.09,260.75c-1.01,6.94-1.96,13.42-2.94,20.09
			c1.32,0.19,2.49,0.36,3.75,0.55c1-6.85,1.96-13.42,2.94-20.09C345.5,261.11,344.4,260.94,343.09,260.75z M339.11,280.79
			c1.02-6.95,1.97-13.45,2.95-20.15c-1.24-0.18-2.33-0.34-3.53-0.52c-0.99,6.78-1.95,13.37-2.95,20.15
			C336.79,280.45,337.8,280.6,339.11,280.79z M341.59,239.04c-0.96,6.58-1.87,12.82-2.8,19.15c1.25,0.18,2.33,0.34,3.52,0.51
			c0.95-6.5,1.86-12.74,2.8-19.15C343.89,239.37,342.86,239.22,341.59,239.04z M343.36,258.88c1.39,0.2,2.5,0.37,3.71,0.54
			c0.95-6.52,1.87-12.81,2.8-19.14c-1.36-0.2-2.47-0.36-3.71-0.54C345.22,246.18,344.31,252.39,343.36,258.88z M333.24,320.78
			c0.92-6.27,1.79-12.23,2.67-18.23c-1.27-0.19-2.36-0.35-3.53-0.52c-0.9,6.18-1.77,12.12-2.67,18.23
			C330.89,320.43,331.9,320.58,333.24,320.78z M338.03,321.46c0.93-6.34,1.8-12.29,2.67-18.26c-1.35-0.2-2.46-0.36-3.72-0.54
			c-0.9,6.15-1.77,12.1-2.67,18.26C335.57,321.1,336.69,321.26,338.03,321.46z M338.79,282.87c-1.32-0.19-2.41-0.35-3.48-0.51
			c-0.9,6.13-1.75,11.96-2.6,17.77c1.25,0.18,2.28,0.33,3.48,0.51C337.06,294.73,337.89,289.01,338.79,282.87z M343.65,283.57
			c-1.34-0.2-2.52-0.37-3.78-0.55c-0.88,6.03-1.73,11.84-2.58,17.65c1.35,0.2,2.52,0.37,3.78,0.55
			C341.94,295.21,342.78,289.52,343.65,283.57z M334.08,322.79c-0.8,5.49-1.56,10.64-2.31,15.82c1.32,0.19,2.42,0.35,3.72,0.54
			c0.78-5.35,1.53-10.49,2.31-15.82C336.51,323.15,335.4,322.98,334.08,322.79z M330.59,338.48c0.79-5.4,1.55-10.62,2.3-15.74
			c-1.32-0.19-2.4-0.35-3.42-0.5c-0.8,5.46-1.55,10.6-2.3,15.74C328.4,338.16,329.43,338.31,330.59,338.48z M331.48,340.41
			c-0.8,5.44-1.54,10.56-2.3,15.71c1.36,0.2,2.53,0.37,3.68,0.54c0.79-5.41,1.54-10.51,2.3-15.71
			C333.86,340.76,332.82,340.61,331.48,340.41z M332.68,358.77c-1.5-0.22-2.66-0.39-3.79-0.55c-0.76,5.2-1.47,10.08-2.18,14.89
			c1.36,0.2,2.53,0.37,3.79,0.55C331.25,368.57,331.94,363.82,332.68,358.77z M355.73,174.34c-0.71,4.88-1.4,9.61-2.11,14.44
			c1.33,0.19,2.5,0.37,3.81,0.56c0.72-4.9,1.39-9.52,2.11-14.44C358.24,174.71,357.06,174.54,355.73,174.34z M352.55,188.76
			c0.74-5.08,1.42-9.72,2.14-14.62c-1.25-0.18-2.34-0.34-3.52-0.51c-0.73,4.98-1.42,9.73-2.14,14.62
			C350.24,188.42,351.26,188.57,352.55,188.76z M326.39,375.2c-0.7,4.78-1.35,9.23-2.01,13.76c1.34,0.2,2.5,0.37,3.68,0.54
			c0.7-4.76,1.34-9.2,2.01-13.76C328.79,375.55,327.75,375.4,326.39,375.2z M311.28,373.15c-1.26-0.18-2.33-0.34-3.43-0.5
			c-0.7,4.76-1.35,9.21-2,13.71c1.27,0.19,2.28,0.33,3.43,0.5C309.96,382.18,310.62,377.7,311.28,373.15z M318.06,431.74
			c1.49,0.22,2.66,0.39,3.81,0.56c0.63-4.29,1.2-8.23,1.79-12.28c-1.37-0.2-2.54-0.37-3.81-0.56
			C319.24,423.67,318.66,427.63,318.06,431.74z M301.41,416.66c-0.64,4.41-1.24,8.47-1.83,12.55c1.27,0.19,2.29,0.33,3.45,0.5
			c0.62-4.25,1.22-8.33,1.83-12.55C303.67,416.99,302.64,416.84,301.41,416.66z M297.62,442.44c-0.55,3.8-1.07,7.33-1.58,10.79
			c1.32,0.19,2.4,0.35,3.48,0.51c0.55-3.74,1.05-7.18,1.58-10.79C299.93,442.78,298.91,442.63,297.62,442.44z M316.17,445.19
			c-0.55,3.75-1.06,7.27-1.57,10.74c1.36,0.2,2.53,0.37,3.76,0.55c0.54-3.72,1.04-7.12,1.57-10.74
			C318.65,445.56,317.54,445.4,316.17,445.19z M320.17,417.48c1.42,0.21,2.53,0.37,3.8,0.56c0.55-3.76,1.06-7.27,1.61-11.04
			c-1.33-0.19-2.5-0.36-3.8-0.56C321.24,410.18,320.72,413.71,320.17,417.48z M305.08,415.34c0.56-3.85,1.1-7.5,1.63-11.17
			c-1.24-0.18-2.27-0.33-3.4-0.5c-0.56,3.82-1.09,7.46-1.63,11.17C302.95,415.02,303.96,415.17,305.08,415.34z M317.66,298.57
			c-1.31,1.28-2.29,1.77-2.4,2.43c-0.86,5.04-1.59,10.11-2.25,15.18c-0.08,0.59,0.56,1.26,0.87,1.89c0.38-0.5,1.02-0.95,1.1-1.5
			C315.87,311,316.65,305.43,317.66,298.57z M338.9,321.17c0.2,0.33,0.4,0.65,0.6,0.98c0.54-0.74,1.43-1.41,1.57-2.23
			c0.82-4.78,1.52-9.58,2.1-14.39c0.09-0.79-0.61-1.65-0.95-2.48c-0.25,0.21-0.51,0.41-0.76,0.62
			C340.6,309.5,339.75,315.34,338.9,321.17z M295.72,455.18c-0.48,3.31-0.94,6.44-1.43,9.76c1.28,0.19,2.36,0.35,3.47,0.51
			c0.5-3.42,0.96-6.57,1.43-9.76C297.96,455.51,296.93,455.36,295.72,455.18z M312.83,467.65c1.31,0.19,2.48,0.36,3.77,0.55
			c0.49-3.38,0.95-6.49,1.41-9.61c-1.4-0.2-2.56-0.37-3.77-0.55C313.75,461.37,313.31,464.39,312.83,467.65z M354.6,215.27
			c-1.22,8.34-2.32,15.85-3.47,23.74C353.26,237.05,355.89,219.3,354.6,215.27z M330.03,212.49c-0.44-0.09-0.87-0.18-1.31-0.27
			c-1.08,7.37-2.16,14.74-3.18,22.12c-0.03,0.21,0.67,0.51,1.17,0.88C327.84,227.44,328.94,219.97,330.03,212.49z M326.67,405.08
			c2.87,0.26,3.03-0.12,4.01-9.7c0.21-2.05,0.73-4.58-2.05-3.67C327.98,396.1,327.35,400.42,326.67,405.08z M320.22,443.75
			c0.49-3.36,0.91-6.25,1.37-9.38c-1.35-0.2-2.52-0.37-3.76-0.55c-0.48,3.26-0.92,6.26-1.37,9.38
			C317.75,443.39,318.87,443.55,320.22,443.75z M269.11,679.18c-0.15,0.1-0.93,0.63-1.7,1.16c0.64,0.63,1.21,1.66,1.93,1.81
			c2.85,0.6,5.74,1.01,8.64,1.27c0.78,0.07,1.65-0.63,2.48-0.98c-0.64-0.63-1.21-1.66-1.93-1.81
			C275.67,680.03,272.77,679.71,269.11,679.18z M297.83,440.34c1.41,0.21,2.49,0.36,3.53,0.52c0.48-3.29,0.92-6.29,1.34-9.17
			c-1.28-0.19-2.35-0.34-3.53-0.52C298.71,434.38,298.28,437.27,297.83,440.34z M267,693.67c-0.17,0.14-0.96,0.79-1.75,1.45
			c0.72,0.54,1.39,1.41,2.18,1.56c2.95,0.58,5.93,1.02,8.93,1.29c0.62,0.06,1.35-0.86,2.03-1.33c-0.53-0.51-1-1.37-1.6-1.48
			C273.82,694.6,270.83,694.23,267,693.67z M302.65,401.31c0.57-3.89,1.11-7.59,1.65-11.29c0.41-2.85-0.75-2.57-2.45-1.99
			c-0.52,3.52-0.96,6.97-1.54,10.39C299.89,400.92,300.42,401.96,302.65,401.31z M314.4,320.24c-0.25-0.33-0.5-0.66-0.75-1
			c-0.56,0.88-1.45,1.69-1.63,2.65c-0.72,3.82-1.31,7.69-1.71,11.56c-0.09,0.84,0.78,1.74,1.2,2.61c0.23-0.25,0.46-0.5,0.69-0.75
			C312.93,330.29,313.67,325.26,314.4,320.24z M338.64,323.47c-0.77,5.28-1.54,10.53-2.3,15.73c2.33,1.28,2.3-1.08,2.59-2.87
			C340.87,324.23,340.86,324.23,338.64,323.47z M335.02,357.71c0.31-0.29,0.61-0.58,0.92-0.87c0.64-4.4,1.37-8.8,1.86-13.21
			c0.1-0.91-0.68-1.88-1.06-2.83c-0.29,0.21-0.59,0.42-0.88,0.63c-0.66,4.53-1.4,9.06-1.92,13.6
			C333.83,355.88,334.63,356.81,335.02,357.71z M307.42,352.7c0.25,0.35,0.5,0.7,0.74,1.06c0.61-0.89,1.58-1.7,1.77-2.69
			c0.71-3.71,1.22-7.48,1.66-11.24c0.1-0.8-0.38-1.65-0.59-2.48c-0.55,0.72-1.46,1.36-1.6,2.16
			C308.64,343.88,308.06,348.29,307.42,352.7z M347.97,271.77c-0.03,0-0.06-0.01-0.09-0.01c0.41-2.8,0.86-5.59,1.19-8.39
			c0.07-0.61-0.29-1.26-0.45-1.89c-0.44,0.54-1.17,1.03-1.27,1.64c-0.9,5.58-1.71,11.17-2.46,16.77c-0.08,0.6,0.33,1.26,0.51,1.89
			c0.45-0.54,1.18-1.01,1.3-1.63C347.21,277.37,347.56,274.57,347.97,271.77z M320.31,267.81c-0.03,0-0.06-0.01-0.1-0.01
			c-0.37,2.53-0.81,5.05-1.07,7.58c-0.09,0.86,0.29,1.75,0.46,2.63c0.46-0.7,1.2-1.35,1.33-2.11c0.86-5.31,1.63-10.63,2.34-15.96
			c0.1-0.72-0.3-1.49-0.47-2.24c-0.44,0.71-1.13,1.36-1.28,2.14C321.02,262.47,320.7,265.15,320.31,267.81z M310,487.22
			c1.46,0.21,2.55,0.37,3.77,0.55c0.42-2.87,0.8-5.46,1.2-8.18c-1.36-0.2-2.53-0.37-3.77-0.55
			C310.78,481.87,310.4,484.47,310,487.22z M335.58,359.03c-2.58-0.1-2.9,1.03-4.16,12.41c-0.26,2.34,0.08,3.28,1.97,2.54
			C334.11,369.13,334.82,364.26,335.58,359.03z M290.86,685.36c1.43,0.21,2.85,0.56,4.29,0.55c0.57,0,1.19-0.82,1.79-1.26
			c-0.4-0.53-0.75-1.42-1.22-1.52c-2.74-0.53-5.51-0.93-8.29-1.2c-0.44-0.04-1,0.84-1.5,1.3c0.4,0.52,0.74,1.36,1.23,1.51
			C288.36,685.12,289.63,685.18,290.86,685.36z M291.38,484.47c1.37,0.2,2.46,0.36,3.55,0.52c0.43-2.93,0.81-5.54,1.19-8.13
			c-1.27-0.19-2.35-0.34-3.55-0.52C292.16,479.13,291.79,481.63,291.38,484.47z M308.37,498.44c1.64-0.33,3.54-0.12,3.84-0.9
			c0.75-1.96,1.14-4.5,0.91-6.54c-0.09-0.83-2.17-0.98-3.44-1.47C309.21,492.65,308.85,495.11,308.37,498.44z M304.94,369.57
			c0.21,0.38,0.42,0.75,0.63,1.13c0.64-0.81,1.66-1.52,1.84-2.44c0.69-3.55,1.08-7.17,1.66-10.76c0.41-2.55-0.36-2.99-2.02-2.35
			C306.33,360.04,305.64,364.8,304.94,369.57z M256.09,680.25c0,0.01,0,0.01,0,0.02c1.43,0.21,2.85,0.54,4.29,0.56
			c0.48,0.01,1.02-0.8,1.53-1.24c-0.29-0.52-0.52-1.44-0.89-1.5c-2.93-0.54-5.89-0.97-8.86-1.28c-0.36-0.04-0.83,0.82-1.24,1.26
			c0.29,0.52,0.52,1.4,0.9,1.5C253.21,679.93,254.66,680.05,256.09,680.25z M254.11,694.78c1.43,0.21,2.85,0.51,4.29,0.57
			c0.42,0.02,0.9-0.69,1.36-1.06c-0.33-0.6-0.59-1.65-1.01-1.73c-2.83-0.56-5.7-0.96-8.57-1.27c-0.4-0.04-0.9,0.69-1.36,1.07
			c0.33,0.6,0.58,1.6,1.01,1.73C251.23,694.49,252.68,694.57,254.11,694.78z M289.94,697.05c0-0.01,0-0.01,0-0.02
			c-1.52-0.22-3.04-0.56-4.58-0.6c-0.48-0.01-1.02,0.8-1.53,1.24c0.29,0.52,0.52,1.44,0.89,1.51c2.93,0.54,5.89,0.97,8.86,1.28
			c0.36,0.04,0.83-0.82,1.24-1.26c-0.29-0.52-0.51-1.4-0.9-1.5C292.63,697.34,291.27,697.25,289.94,697.05z M291.24,487.18
			c-0.44,3.02-0.81,5.52-1.19,8.15c1.32,0.11,2.25,0.18,3.28,0.27c0.41-2.78,0.78-5.33,1.16-7.95
			C293.26,487.47,292.25,487.33,291.24,487.18z M351.68,240.3c-0.34,0.02-0.68,0.04-1.02,0.05c-0.88,6.05-1.78,12.09-2.61,18.14
			c-0.06,0.41,0.44,0.89,0.68,1.33c0.39-0.64,1.03-1.25,1.14-1.94c0.8-5.21,1.51-10.43,2.19-15.65
			C352.14,241.61,351.82,240.94,351.68,240.3z M305.86,379.22c0.25-1.74,0.61-3.48,0.71-5.21c0.04-0.65-0.46-1.72-0.86-1.81
			c-0.41-0.09-1.35,0.72-1.44,1.27c-0.64,3.58-1.17,7.2-1.6,10.81c-0.07,0.61,0.55,1.27,0.85,1.91c0.53-0.59,1.34-1.07,1.53-1.79
			C305.48,382.74,305.62,380.96,305.86,379.22z M326.69,236.53c-0.99,0.19-1.34,0.2-1.35,0.27c-1.05,6.08-2.09,12.16-3.08,18.25
			c-0.05,0.29,0.45,0.99,0.64,0.93c0.38-0.12,0.99-0.59,1.05-0.98C324.89,248.95,325.76,242.9,326.69,236.53z M332.28,383.07
			c0.25-1.74,0.61-3.48,0.71-5.21c0.04-0.65-0.47-1.71-0.87-1.8c-0.4-0.09-1.34,0.72-1.44,1.27c-0.64,3.59-1.17,7.2-1.59,10.82
			c-0.07,0.61,0.55,1.28,0.85,1.91c0.53-0.59,1.34-1.08,1.53-1.8C331.9,386.6,332.03,384.81,332.28,383.07z M312.64,469.43
			c-0.4,2.72-0.76,5.17-1.1,7.52c1.38,0.2,2.55,0.37,3.67,0.54c0.39-2.7,0.74-5.04,1.1-7.52
			C315.04,469.78,314.01,469.63,312.64,469.43z M306.99,507.29c1.31,0.19,2.54,0.37,3.82,0.56c0.39-2.67,0.73-5.01,1.08-7.41
			c-1.39-0.2-2.56-0.37-3.82-0.56C307.7,502.44,307.37,504.7,306.99,507.29z M358.93,191.55c-0.26-0.04-0.51-0.07-0.77-0.11
			c-1.12,7.63-2.23,15.26-3.35,22.89c0.26,0.04,0.51,0.07,0.77,0.11C356.7,206.81,357.81,199.18,358.93,191.55z M289.6,497.04
			c-0.38,2.61-0.74,5.06-1.11,7.62c1.27,0.19,2.34,0.34,3.46,0.51c0.4-2.71,0.75-5.15,1.11-7.62
			C291.83,497.36,290.81,497.21,289.6,497.04z M344.88,292.92c0.33-2.28,0.75-4.55,0.95-6.83c0.07-0.82-0.4-1.65-0.62-2.47
			c-0.4,0.65-1.05,1.26-1.16,1.96c-0.76,4.67-1.44,9.36-2.04,14.06c-0.08,0.65,0.44,1.37,0.68,2.05c0.4-0.65,1.02-1.24,1.16-1.95
			C344.28,297.49,344.55,295.2,344.88,292.92z M296.4,474.88c0.38-2.62,0.74-5.06,1.1-7.53c-1.26-0.18-2.33-0.34-3.51-0.51
			c-0.39,2.64-0.73,4.97-1.1,7.53C294.13,474.55,295.21,474.71,296.4,474.88z M319.09,288.78c0,0,0.01,0,0.01,0
			c0.33-2.28,0.74-4.55,0.95-6.83c0.06-0.69-0.42-1.4-0.65-2.11c-0.38,0.51-1.02,0.97-1.11,1.53c-0.79,4.94-1.52,9.9-2.17,14.86
			c-0.07,0.53,0.46,1.12,0.71,1.68c0.38-0.5,1-0.95,1.11-1.52C318.4,293.88,318.71,291.32,319.09,288.78z M329.35,210.6
			c0.38,0.02,0.76,0.04,1.14,0.05c1.08-7.61,2.48-15.18,3.16-22.84c-0.32-0.04-0.63-0.07-0.95-0.11
			C331.58,195.34,330.46,202.97,329.35,210.6z M315.74,500.67c-1.21-0.07-2.1-0.12-2.99-0.16c-0.4,2.72-0.74,5.06-1.1,7.55
			c1.04,0.15,1.92,0.28,2.95,0.43C314.97,505.91,315.31,503.57,315.74,500.67z M284.41,504.35c1.2,0.07,2.09,0.12,3.01,0.18
			c0.4-2.74,0.74-5.08,1.11-7.58c-1.04-0.15-1.93-0.28-2.97-0.43C285.18,499.06,284.84,501.41,284.41,504.35z M358.32,189.52
			c0.22,0.03,0.45,0.06,0.67,0.08c0.71-4.84,1.42-9.68,2.12-14.52c-0.22-0.03-0.45-0.05-0.67-0.08
			C359.73,179.84,359.02,184.68,358.32,189.52z M335.96,171.41c-0.3-0.03-0.61-0.07-0.91-0.1c-0.67,4.85-1.9,9.66-2.01,14.56
			c0.27,0.02,0.54,0.05,0.81,0.07C334.54,181.09,335.25,176.25,335.96,171.41z M283.01,685.03c1.04-0.91,1.68-1.48,2.32-2.05
			c-0.69-0.58-1.32-1.44-2.08-1.64c-0.53-0.14-1.25,0.63-1.88,0.99C281.85,683.13,282.34,683.93,283.01,685.03z M281.55,694.98
			c-0.95,0.86-1.65,1.49-2.34,2.11c0.5,0.53,0.97,1.47,1.52,1.49c0.79,0.03,1.64-0.62,2.46-0.98
			C282.74,696.88,282.28,696.15,281.55,694.98z M264.26,682.17c0.95-0.76,1.6-1.28,2.24-1.8c-0.53-0.6-0.99-1.59-1.59-1.7
			c-0.63-0.11-1.39,0.64-2.1,1.02C263.23,680.42,263.66,681.14,264.26,682.17z M262.32,696.69c0.86-0.81,1.47-1.39,2.08-1.96
			c-0.56-0.56-1.08-1.5-1.71-1.57c-0.61-0.07-1.34,0.74-2.02,1.17C261.15,695,261.63,695.69,262.32,696.69z"/>
		<path d="M240.73,812.22c-4.49-1.48-9-2.88-13.48-4.44c-15.4-5.36-29.99-13.11-41.95-26.99c-10.25-11.9-18.42-26.33-21.61-45.29
			c-2.42-14.33-2.7-29.12-0.86-44.21c3.88-31.89,13.33-60.8,29.32-86.16c4.82-7.64,9.34-15.81,14.76-22.55
			c11.43-14.22,15.67-30.68,14.86-50.48c-0.63-15.37,0.1-31.09,0.83-46.67c0.5-10.68,2.95-21.16,6.23-31.3
			c7.24-22.37,20.26-33.59,36.54-38.78c10.9-3.48,21.78-4.48,32.36-4.4c2.4-1.76-0.2-8.05,4.47-7.58c-0.55,3.75-1.05,7.2-1.61,10.99
			c-0.66,0.2-1.46,0.45-2.84,0.88c1.09,0.67,1.74,1.06,2.51,1.54c-0.57,3.93-1.16,7.91-1.78,12.18c-0.77,0.1-1.55,0.19-2.32,0.29
			c-0.04,0.23-0.07,0.45-0.11,0.68c0.7,0.41,1.41,0.81,2.13,1.24c-0.45,3.08-0.88,6-1.3,8.92c-0.98,0.22-1.85,0.42-2.72,0.62
			c-0.02,0.22-0.04,0.45-0.07,0.67c0.75,0.32,1.49,0.64,2.4,1.03c-0.49,3.37-1,6.82-1.55,10.57c-0.84,0.14-1.8,0.3-2.75,0.46
			c-0.03,0.23-0.06,0.46-0.09,0.7c0.83,0.34,1.65,0.69,2.56,1.07c-0.47,3.19-0.91,6.24-1.39,9.48c-0.93,0.06-1.83,0.12-2.73,0.18
			c-0.06,0.25-0.12,0.5-0.18,0.75c0.79,0.34,1.58,0.67,2.55,1.08c-0.34,2.3-0.68,4.67-1.08,7.37c-0.84,0.13-1.81,0.28-2.77,0.43
			c-0.04,0.23-0.07,0.46-0.11,0.69c0.82,0.33,1.64,0.67,2.6,1.06c-0.38,2.62-0.77,5.24-1.17,7.97c-1.05,0.2-2.02,0.39-3,0.57
			c-0.07,0.32-0.13,0.64-0.2,0.96c0.84,0.46,1.69,0.93,2.72,1.5c-0.35,2.4-0.71,4.87-0.96,6.58c-14.41,4.48-23.89,16.55-29.56,34.77
			c-4.02,12.92-4.14,25.61-1.14,38.21c2.61,10.93,7.6,18.73,14.46,24.49c1.19,1,1.97,1.79,1.61,4.24
			c-3.88,26.02-7.66,52.06-11.47,78.09c-0.08,0.52-0.24,1.02-0.47,1.99c-4.12-0.6-8.19-1.26-12.28-1.78
			c-3.45-0.43-6.9-0.88-10.38-0.98c-3.35-0.1-5.91,2.06-8.05,6.18c-1.17,2.26-3.33,3.61-5.04,5.37c-0.2-0.25-0.4-0.49-0.6-0.74
			c-0.23,1.59-0.48,3.18-0.69,4.78c-0.36,2.74,0.53,4.36,2.31,4.99c0.91,0.32,1.89,0.4,2.85,0.53c27.08,3.96,54.16,7.92,81.24,11.88
			c5.9,0.86,6.46,0.23,7.35-8.55c-2.75-1.24-3.66-4.52-4.65-8.18c-0.66-2.45-2.64-4.93-4.49-5.59c-4.28-1.55-8.83-2.07-13.29-2.89
			c-3.22-0.59-6.48-0.97-9.96-1.48c0.12-1.36,0.17-2.52,0.34-3.67c3.68-25.23,7.4-50.45,11-75.69c0.4-2.79,1.26-3.8,3.15-4.58
			c18.14-7.49,30.96-31.78,30.51-57.31c-0.24-13.63-3.82-24.86-10.66-33.68c-2.08-2.68-4.8-4.42-7.71-7.03
			c0.18-1.24,0.54-3.71,0.93-6.38c0.92-0.2,1.92-0.43,2.92-0.65c0.07-0.32,0.14-0.64,0.22-0.96c-0.84-0.42-1.67-0.84-2.72-1.36
			c0.37-2.52,0.75-5.14,1.18-8.08c0.81-0.05,1.74-0.11,2.66-0.17c0.06-0.19,0.13-0.38,0.19-0.57c-0.83-0.48-1.67-0.95-2.61-1.49
			c0.34-2.34,0.69-4.71,1.07-7.34c0.93-0.03,1.76-0.05,2.6-0.08c0.06-0.19,0.11-0.39,0.17-0.58c-0.74-0.42-1.48-0.83-2.4-1.35
			c0.43-2.94,0.87-5.96,1.37-9.35c0.75-0.14,1.65-0.31,2.54-0.47c0.05-0.2,0.11-0.39,0.16-0.59c-0.76-0.39-1.53-0.77-2.42-1.23
			c0.5-3.4,1-6.85,1.54-10.56c0.88-0.1,1.79-0.2,2.7-0.3c0.07-0.25,0.13-0.5,0.2-0.75c-0.78-0.37-1.57-0.75-2.53-1.21
			c0.4-2.75,0.83-5.66,1.3-8.92c0.67-0.24,1.52-0.54,2.99-1.06c-1.24-0.6-1.88-0.91-2.67-1.29c0.58-3.95,1.16-7.93,1.79-12.23
			c0.71-0.11,1.49-0.22,3.15-0.47c-1.44-0.93-2.12-1.37-2.87-1.85c0.51-3.52,1.02-6.98,1.55-10.59c1.62-0.51,2.77-0.49,2.29,2.47
			c-0.28,1.71-0.51,3.43-0.69,4.71c8.06,3.48,15.92,6.41,23.47,10.29c4.81,2.47,9.34,5.97,13.67,9.66
			c13.91,11.84,18.45,30.5,16.96,53.38c-1.13,17.37-5.51,33.85-10.45,50.21c-3.25,10.76-6.44,21.56-9.38,32.45
			c-1.85,6.83-1.81,13.74,0.04,20.1c3.25,11.2,6.87,22.15,10.06,33.39c6.87,24.23,10.5,49.58,7.99,76.92
			c-0.06,0.6,0.14,1.21,0.21,1.82c-1.33,9.12-2.67,18.25-4,27.37c-0.34,0.95-0.68,1.9-1.01,2.86c-3.53,10.29-6.45,21.04-10.73,30.78
			c-7.63,17.39-19.33,28.97-32.15,37.68c-15.7,10.67-32.27,13.9-48.95,14.6c-4.93,0.21-9.84,0.22-14.77,0.32
			C259.49,814.96,250.11,813.59,240.73,812.22z M217.93,624.6c0.09,0.02,0.18,0.04,0.27,0.06c-0.94,6.44-1.8,12.89-2.84,19.31
			c-1.34,8.19-3.92,15.7-8.46,21.83c-3.69,4.99-8.46,4.32-9.76-1.24c-0.48-2.05-0.67-4.23,1.42-5.41c1.88-1.06,3.38-2.88,2.62-5.56
			c-0.46-1.62-2.2-3.81-3.04-3.47c-1.39,0.56-3.1,2.7-3.64,4.61c-1.51,5.35-0.68,10.15,2.27,13.7c2.74,3.29,7.45,3.85,10.84,0.21
			c2.97-3.19,6.03-7.2,7.68-11.67c2.71-7.38,4.76-15.31,6.28-23.2c2.45-12.75,3.95-25.72,6.48-38.44c0.86-4.33,3.35-8.48,5.59-12.16
			c1.75-2.87,5.38-2.7,6.88-0.4c1.66,2.55,1.19,4.84-0.94,7.18c-0.54,0.59-0.77,2.68-0.48,3.59c0.31,0.94,1.43,1.81,2.21,1.73
			c0.75-0.08,1.91-1.26,2.19-2.25c0.44-1.58,0.56-3.5,0.34-5.1c-1.13-8.25-7.31-10.71-12.96-5.14c-4.07,4.01-6.73,9.61-8.1,15.92
			C220.88,607.25,219.51,615.95,217.93,624.6z M340.01,635.9c-0.24-0.01-0.49-0.02-0.73-0.04c-0.92,10.34-2.17,20.7-2.67,31.03
			c-0.39,8.02,0.64,15.77,4.65,21.62c2.82,4.11,7.16,4.81,10.9,2.1c3.42-2.47,6.2-8.61,5.58-13.27c-0.23-1.73-1.4-3.86-2.52-4.25
			c-0.96-0.33-3.1,1.23-3.56,2.58c-0.51,1.49-0.17,4.36,0.64,5.45c1.79,2.41,1.16,4.42-0.28,6.58c-2.82,4.2-7.05,3.75-9.04-1.22
			c-2.21-5.51-3.33-11.75-2.56-18.33c1.61-13.84,3.63-27.65,5.41-41.48c0.96-7.43,1.38-14.81-0.28-21.84
			c-1.04-4.39-2.86-7.83-5.99-9.64c-4.58-2.66-10.32,1.81-11.1,8.84c-0.15,1.37,0.56,3.16,1.31,4.12c0.39,0.5,2.26-0.05,2.52-0.72
			c0.51-1.33,0.77-3.32,0.42-4.6c-0.97-3.61,0.39-7.24,3.2-6.92c1.79,0.2,4.23,1.47,4.85,3.37c1.23,3.73,2.07,8.22,1.85,12.43
			C342.22,619.75,340.94,627.84,340.01,635.9z"/>
		<path class="st0" d="M268.86,816.33c4.92-0.1,9.84-0.11,14.77-0.32c16.68-0.7,33.26-3.93,48.95-14.6
			c12.82-8.71,24.52-20.3,32.15-37.68c4.28-9.74,7.2-20.49,10.73-30.78c0.33-0.96,0.67-1.9,1.01-2.86
			c-4.86,33.22-9.71,66.44-14.59,99.84C330.88,825.4,299.87,820.86,268.86,816.33z"/>
		<path d="M335.4,118.63c1.03-7.03,2-13.67,3.01-20.59c-1.93-0.28-3.6-0.53-5.38-0.79c-1.06,2.85-1.69,6.41-5.01,5.38
			c-2.11-0.65-4.31-0.83-4.55-4.54c-0.27-4.23-0.01-8.47,2.81-11.59c2.12-2.34,6.11-0.15,7.44,2.63c0.85,1.78,3.08,2.2,5.37,3.67
			c0.67-7.51,1.38-13.66,1.61-19.78c0.04-1.04-2.02-1.94-3.6-3.33c-1.23,6.37-3.89,6.72-6.99,5.74c-2.41-0.77-3.39-3.53-2.77-8.17
			c0.66-4.94,2.43-7.91,4.91-7.59c2.16,0.28,5.16-0.94,5.33,4.28c0.03,0.91,1.99,1.43,3.78,2.6c0.58-9.96,1.1-18.76,1.6-27.44
			c2.48,0.36,5,1.28,7.54,0.97c3.48-0.42,6.96-2.09,10.45-2.6c2.07-0.3,4.15,0.59,6.23,0.94c0.43,0.07,0.95,0.43,1.27,0.19
			c2.66-2.07,4.74-0.46,6.78,1.11c4.92,3.81,9.92,7.24,16.51,5.63c-2.16,9.1-4.21,17.68-6.25,26.26c0.18,0.32,0.36,0.63,0.54,0.95
			c0.73-0.61,1.81-1.01,2.12-1.86c1.3-3.56,3.47-2.98,5.11-2.29c1.4,0.59,3.2,2.44,3.36,4.18c0.26,2.8-0.34,6.14-1.23,8.93
			c-1.13,3.53-3.49,2.93-5.67,2.68c-1.91-0.21-2.98-1.08-3.05-3.94c-0.02-0.89-0.83-1.64-1.28-2.45c-0.56,0.65-1.47,1.19-1.64,1.95
			c-1.25,5.78-2.36,11.61-3.55,17.61c1.97,0.87,3.2,1.32,4.77-1.48c0.73-1.3,3.19-1.53,4.66-1.17c1.25,0.3,3.14,2.05,3.11,3.32
			c-0.07,3.57-0.51,7.5-1.69,10.77c-1.39,3.88-4.35,2.77-6.3,1.76c-1.26-0.65-1.8-3.47-2.66-5.32c0.22-0.27,0.44-0.54,0.65-0.81
			c-1.11-0.16-2.23-0.33-3.65-0.53c-0.99,6.79-1.98,13.52-3,20.49c1.2,0.18,2.41,0.35,3.6,0.53c2.12-4.13,4.02-5.06,7.21-3.53
			c1.96,0.94,2.92,4.74,2.04,8.94c-0.67,3.23-1.6,6.51-4.55,6.94c-3.99,0.58-4.97-0.57-5.66-6.22c-1.09-0.16-2.23-0.33-3.83-0.56
			c-0.56,5.47-0.99,10.95-1.74,16.38c-0.24,1.76-1.08,3.8-2.08,5.04c-4.23,5.22-5.5,7.75-9.68,21.13
			c-8.57-1.25-17.16-2.51-26.07-3.81c0.02-1.22-0.02-2.5,0.09-3.79c0.6-7.16-0.77-13.39-3.18-19.26c-0.6-1.45-0.81-3.63-0.54-5.37
			c0.83-5.31,1.97-10.56,3.04-16.09c-2.02-0.29-3.7-0.54-5.6-0.82c-1.13,2.98-2.34,5.78-5.53,4.7c-2.14-0.72-3.73-1.5-4.08-4.8
			c-0.4-3.83,0.8-9.51,2.97-10.56c1.9-0.92,4.11-0.21,6.18-0.14c0.21,0.01,0.51,0.51,0.52,0.84
			C329.44,119.46,332.7,118.11,335.4,118.63z M367.38,105.41c2.16,0.38,4.3-2.02,4.91-5.5c0.51-2.91-0.98-6-3.08-6.35
			c-2.14-0.35-4.38,1.98-4.81,5.03C363.92,102.05,365.22,105.04,367.38,105.41z M354,97.23c0.46-2.82-1.12-6.01-3.14-6.34
			c-1.96-0.32-4.23,1.91-4.75,4.67c-0.64,3.36,0.79,6.78,2.99,7.16C351.22,103.09,353.44,100.6,354,97.23z M376.12,73.72
			c0.43-2.73-0.99-5.64-2.95-6.08c-2.08-0.47-4.42,1.78-4.93,4.73c-0.52,3.02,0.87,5.94,3.01,6.31
			C373.33,79.05,375.66,76.67,376.12,73.72z M346.89,117.76c-2.24-0.28-4.42,2.05-4.78,5.1c-0.35,2.94,1.05,5.39,3.25,5.71
			c2.26,0.32,4.4-1.93,4.78-5.04C350.48,120.72,348.96,118.02,346.89,117.76z M357.8,70.89c0.4-2.84-1.07-5.64-3.11-5.94
			c-2.16-0.32-4.51,2.13-4.86,5.06c-0.34,2.83,1.14,5.68,3.12,6.01C355.03,76.37,357.38,73.87,357.8,70.89z M368.17,126.73
			c0.56-3.32-0.65-6.03-2.93-6.24c-2.3-0.2-4,1.28-4.69,4.57c-0.66,3.17,0.66,5.83,2.97,6.21
			C365.72,131.63,367.67,129.73,368.17,126.73z"/>
		<path d="M292.71,598.23c-3.88,26.57-7.76,53.1-11.67,79.85c-4.36-0.64-8.58-1.25-12.94-1.89c3.92-26.79,7.81-53.41,11.67-79.85
			C284.12,596.97,288.28,597.58,292.71,598.23z"/>
		<path d="M292.63,507.18c4.55,0.67,8.72,1.27,13.09,1.91c-0.15,1.48-0.25,2.79-0.44,4.1c-3.34,22.93-6.76,45.84-9.98,68.79
			c-0.53,3.81-1.7,4.84-4.12,4.37c-2.57-0.5-5.21-0.69-7.72-1.45c-0.76-0.23-1.81-2-1.68-2.92
			C285.3,557.18,288.95,532.4,292.63,507.18z"/>
		<path d="M300.56,583.83c3.62-24.79,7.2-49.27,10.94-74.87c1.33,1.19,2.44,1.83,3.2,2.93c1.78,2.59,3.66,5.14,5.02,8.17
			c7.41,16.55,4.07,40.08-7.56,54.22C306.62,581.01,304.8,582.52,300.56,583.83z"/>
		<path d="M276.27,580.36c-9.93-7.32-15.59-29.93-9.35-48.89c4.44-13.5,14.71-26.51,20.17-25.08
			C283.49,530.94,279.89,555.53,276.27,580.36z"/>
		<path d="M285.8,678.9c-1.32-0.19-2.36-0.35-3.65-0.53c3.93-26.89,7.86-53.76,11.83-80.94c1.13-0.24,2.34-0.5,3.85-0.82
			C293.79,624.23,289.82,651.36,285.8,678.9z"/>
		<path d="M275.54,593.51c1.21,0.62,2.22,1.15,3.33,1.72c-3.93,26.91-7.84,53.67-11.8,80.73c-1.1-0.16-2.18-0.32-3.5-0.51
			C267.53,648.31,271.5,621.11,275.54,593.51z"/>
		<path d="M327.9,235.01c1.1-7.55,2.17-14.86,3.27-22.35c4.35,0.64,8.51,1.24,12.88,1.88c-1.08,7.41-2.15,14.72-3.27,22.35
			C336.56,236.28,332.35,235.66,327.9,235.01z"/>
		<path d="M344.36,212.7c-4.47-0.65-8.56-1.25-12.88-1.88c1.11-7.6,2.21-15.13,3.33-22.78c4.35,0.64,8.57,1.25,12.88,1.88
			C346.57,197.56,345.48,205.01,344.36,212.7z"/>
		<path d="M306.81,509.23c1.34,0.2,2.45,0.36,3.93,0.57c-0.26,1.8-0.49,3.35-0.72,4.91c-3.17,21.69-6.42,43.37-9.45,65.08
			c-0.58,4.14-1.67,6.25-4.92,5.78C299.35,560.26,303.06,534.9,306.81,509.23z"/>
		<path d="M288.19,506.49c1.38,0.2,2.4,0.35,3.56,0.52c-3.73,25.53-7.43,50.82-11.13,76.12c-3.5-0.78-3.64-1.03-2.96-5.66
			c3.25-22.26,6.5-44.52,9.76-66.78C287.61,509.38,287.89,508.08,288.19,506.49z"/>
		<path d="M322.35,390.27c2.1,3.47-3.57,5.99,0.36,9.31c0.45-3.08,0.85-5.79,1.27-8.68c1.39,0.2,2.57,0.38,3.91,0.57
			c-0.66,4.53-1.28,8.77-1.95,13.34c-1.29-0.19-2.47-0.36-3.75-0.55c-0.01-0.81-0.01-1.73-0.02-2.64c-3.01,5.63-6.04,0.1-9.26,2.07
			c0.15-2.13,0.25-3.56,0.35-4.98c-0.1-0.04-0.2-0.08-0.3-0.13c-0.4,1.4-0.81,2.79-1.24,4.28c-1.21-0.18-2.31-0.34-4.06-0.59
			c0.76-2.24,1.52-4.07,1.99-5.99c0.3-1.22,0.17-2.59,0.24-3.9c-0.43-0.01-0.86-0.02-1.29-0.03c-0.46,3.14-0.92,6.28-1.43,9.75
			c-1.23-0.18-2.32-0.34-3.61-0.53c0.64-4.41,1.28-8.77,2.02-13.81c1.41,0.54,2.62,1,4.35,1.66c1.49-1.56,3.22-1.17,4.12,1.74
			C317.09,386.71,319.77,393.27,322.35,390.27z"/>
		<path d="M312.86,337.79c4.37,0.64,8.58,1.25,12.95,1.89c-0.29,2.61-0.56,5.11-0.83,7.62c0.16,0.04,0.32,0.08,0.48,0.12
			c0.36-2.46,0.72-4.91,1.11-7.59c1.43,0.21,2.52,0.37,3.81,0.56c-0.76,5.19-1.51,10.34-2.29,15.67c-5.89-0.86-11.61-1.7-17.51-2.56
			C311.34,348.19,312.09,343.04,312.86,337.79z"/>
		<path d="M324.51,258.09c4.37,0.64,8.49,1.24,12.86,1.88c-0.96,6.56-1.92,13.13-2.93,20.02c-4.24-0.62-8.47-1.24-12.86-1.88
			C322.56,271.41,323.51,264.91,324.51,258.09z"/>
		<path d="M310.31,355.39c5.88,0.86,11.51,1.68,17.4,2.54c-0.73,4.98-1.45,9.95-2.18,14.92c-5.78-0.85-11.49-1.68-17.4-2.54
			C308.83,365.52,309.54,360.64,310.31,355.39z"/>
		<path d="M340.48,239.01c-0.95,6.47-1.86,12.71-2.79,19.11c-4.34-0.63-8.48-1.24-12.85-1.88c0.93-6.34,1.84-12.57,2.79-19.11
			C331.84,237.75,336.03,238.36,340.48,239.01z"/>
		<path d="M331.3,301.93c-0.88,6.05-1.76,12.02-2.66,18.17c-4.31-0.63-8.45-1.23-12.84-1.88c0.88-6,1.74-11.93,2.66-18.17
			C322.68,300.67,326.94,301.3,331.3,301.93z"/>
		<path d="M321.28,280.28c4.33,0.63,8.49,1.24,12.87,1.88c-0.86,5.87-1.71,11.67-2.59,17.73c-4.28-0.63-8.48-1.24-12.87-1.88
			C319.55,292.11,320.4,286.31,321.28,280.28z"/>
		<path d="M313.17,335.75c0.77-5.27,1.52-10.42,2.29-15.68c4.4,0.64,8.61,1.26,12.96,1.89c-0.77,5.23-1.5,10.28-2.29,15.68
			C321.87,337.02,317.7,336.41,313.17,335.75z"/>
		<path d="M347.93,188.07c-4.33-0.63-8.46-1.24-12.83-1.88c0.7-4.81,1.39-9.52,2.13-14.55c4.24,0.62,8.47,1.24,12.83,1.88
			C349.33,178.45,348.64,183.18,347.93,188.07z"/>
		<path d="M325.28,375.18c-0.67,4.59-1.33,9.08-2,13.71c-4.37-0.64-8.55-1.25-12.89-1.88c0.68-4.66,1.34-9.15,2-13.71
			C316.75,373.93,320.92,374.54,325.28,375.18z"/>
		<path d="M310.39,419.08c1.03-2.66,2.36-0.64,3.98,0.07c1.26,0.56,2.9-0.16,4.58-0.34c-0.68,4.62-1.26,8.6-1.88,12.85
			c-2.73-0.4-5.33-0.78-8.15-1.19c0.06-1.11,0.12-2.35,0.19-3.6c-0.11-0.02-0.21-0.05-0.32-0.07c-0.32,1.1-0.64,2.2-1.03,3.53
			c-1.17-0.17-2.35-0.34-3.68-0.54c0.6-4.1,1.18-8.08,1.9-13.01C307.61,417.63,308.99,418.35,310.39,419.08z"/>
		<path d="M309.73,416.02c-1.28-0.19-2.31-0.34-3.52-0.51c0.54-3.72,1.06-7.27,1.69-11.58c1.57,0.64,2.98,1.21,4.39,1.78
			c-0.05-0.12-0.1-0.25-0.14-0.37c2.77,0.21,5.54,0.43,8.58,0.67c-0.58,3.95-1.11,7.59-1.66,11.39c-2.68-0.39-5.21-0.76-7.98-1.17
			c0.01-0.93,0.01-1.93,0.02-3.52C310.54,414.07,310.16,414.99,309.73,416.02z"/>
		<path d="M305.38,454.74c0.04-1.03,0.08-1.95,0.11-2.87c-1,4-2.9,2.64-4.89,2.22c0.53-3.65,1.05-7.19,1.68-11.5
			c1.51,0.74,2.84,1.39,4.16,2.03c-0.13,0.31-0.26,0.62-0.4,0.93c0.69-0.58,1.7-1.88,2.02-1.64c2.12,1.64,4.71-0.04,7.01,1.13
			c-0.53,3.62-1.05,7.17-1.59,10.88C310.77,455.52,308.23,455.15,305.38,454.74z"/>
		<path d="M313.31,458.32c-0.22,1.51-0.46,3.23-0.73,4.95c-0.21,1.31-0.46,2.61-0.8,4.48c-2.43-0.36-4.76-0.54-7.02-1.13
			c-0.61-0.16-0.97-1.57-1.13-1.85c-1.36,0.49-2.9,1.06-4.9,1.78c0.62-4.27,1.08-7.4,1.48-10.15
			C304.56,457.04,308.7,457.65,313.31,458.32z"/>
		<path d="M302.33,441.92c0.58-3.94,1.02-6.96,1.54-10.52c4.18,2.03,8.64,1.03,12.88,2.14c-0.49,3.32-0.93,6.34-1.45,9.95
			c-2.69-1.98-6.52,0.93-8.13-3.06C305.77,440.86,304.22,441.34,302.33,441.92z"/>
		<path d="M300.7,484.82c-1.54,0.39-2.94,0.74-4.75,1.19c0.52-3.54,0.91-6.25,1.25-8.57c4.33,0.63,8.53,1.25,12.88,1.88
			c-0.33,2.23-0.71,4.85-1.19,8.15C306.17,485.73,302.59,488.17,300.7,484.82z"/>
		<path d="M277.41,689.31c-1.99,3.03-3.38,2.68-4.49-0.38c-1.79,2.04-3.49,2.98-4.59-0.83c-1.9,2.73-3.47,2.5-4.12,0.91
			c-2.09-0.5-3.4-0.81-4.7-1.13c0.25-1.2,0.48-3.37,0.77-3.43c1.16-0.23,2.34,0.2,3.44,0.98c1.79-1.38,3.49-2.14,4.64,1.38
			c1.87-2.13,3.54-2.85,4.53,0.8c1.77-1.89,3.53-3.45,4.56,0.6c1.86-1.97,3.63-3.17,4.37-0.7c1.87,0.27,3.16,0.46,4.45,0.65
			c-0.23,1.32-0.42,3.73-0.68,3.78c-1.17,0.22-2.36-0.23-3.47-0.97C280.29,692.35,278.6,692.97,277.41,689.31z"/>
		<path d="M295.61,488.22c4.57,0.67,8.64,1.26,12.87,1.88c-0.34,2.35-0.7,4.82-1.17,7.98c-2.68-2.06-6.38,0.74-8.14-2.87
			c-1.42,0.38-2.91,0.77-4.78,1.27C294.91,493.06,295.28,490.5,295.61,488.22z"/>
		<path d="M293.01,506.32c0.19-2.27,0.26-3.33,0.39-4.38c0.16-1.32,0.38-2.64,0.56-3.88c4.48,0.66,8.68,1.27,13.07,1.91
			c-0.33,2.25-0.69,4.72-1.13,7.76c-2.71-1.82-6.25,0.49-8.34-2.98C296.45,505.12,294.98,505.64,293.01,506.32z"/>
		<path d="M302.43,474.72c-1.8,0.34-3.27,0.62-5.05,0.96c0.46-3.16,0.81-5.51,1.14-7.79c4.31,0.63,8.5,1.24,12.9,1.89
			c-0.31,2.1-0.67,4.55-1.02,6.97C304.67,477.08,302.68,476.32,302.43,474.72z"/>
		<path d="M353.45,190.75c1.25,0.18,2.36,0.34,3.66,0.53c-1.11,7.59-2.19,15-3.34,22.83c-1.2-0.1-2.31-0.19-3.69-0.3
			C351.2,206.12,352.3,198.61,353.45,190.75z"/>
		<path d="M348.77,190.02c1.24,0.18,2.28,0.33,3.5,0.51c-1.11,7.58-2.2,15.02-3.33,22.77c-1.17-0.17-2.24-0.33-3.5-0.51
			C346.54,205.29,347.63,197.85,348.77,190.02z"/>
		<path d="M345.19,214.67c1.28,0.19,2.29,0.33,3.48,0.51c-1.1,7.52-2.17,14.82-3.28,22.41c-1.12-0.16-2.2-0.32-3.48-0.51
			C342.98,229.78,344.06,222.37,345.19,214.67z"/>
		<path d="M350.25,238.44c-1.42-0.21-2.53-0.37-3.8-0.56c1.1-7.55,2.18-14.93,3.29-22.49c1.31,0.19,2.48,0.36,3.8,0.56
			C352.44,223.51,351.37,230.78,350.25,238.44z"/>
		<path d="M343.09,260.75c1.31,0.19,2.42,0.35,3.75,0.55c-0.97,6.67-1.93,13.23-2.94,20.09c-1.26-0.18-2.43-0.36-3.75-0.55
			C341.12,274.17,342.07,267.69,343.09,260.75z"/>
		<path d="M339.11,280.79c-1.31-0.19-2.33-0.34-3.53-0.52c0.99-6.78,1.95-13.37,2.95-20.15c1.2,0.17,2.29,0.33,3.53,0.52
			C341.08,267.34,340.13,273.84,339.11,280.79z"/>
		<path d="M341.59,239.04c1.27,0.19,2.31,0.34,3.52,0.51c-0.94,6.41-1.85,12.65-2.8,19.15c-1.19-0.17-2.27-0.33-3.52-0.51
			C339.71,251.86,340.63,245.62,341.59,239.04z"/>
		<path d="M343.36,258.88c0.95-6.49,1.86-12.71,2.8-19.14c1.25,0.18,2.35,0.34,3.71,0.54c-0.92,6.32-1.84,12.61-2.8,19.14
			C345.86,259.25,344.75,259.09,343.36,258.88z"/>
		<path d="M333.24,320.78c-1.35-0.2-2.36-0.34-3.53-0.52c0.89-6.12,1.76-12.06,2.67-18.23c1.17,0.17,2.26,0.33,3.53,0.52
			C335.03,308.55,334.16,314.5,333.24,320.78z"/>
		<path d="M338.03,321.46c-1.34-0.2-2.46-0.36-3.72-0.54c0.9-6.16,1.77-12.11,2.67-18.26c1.26,0.18,2.37,0.35,3.72,0.54
			C339.83,309.17,338.96,315.11,338.03,321.46z"/>
		<path d="M338.79,282.87c-0.9,6.14-1.73,11.86-2.6,17.77c-1.2-0.18-2.23-0.33-3.48-0.51c0.85-5.81,1.7-11.65,2.6-17.77
			C336.38,282.52,337.46,282.68,338.79,282.87z"/>
		<path d="M343.65,283.57c-0.87,5.96-1.7,11.64-2.58,17.65c-1.26-0.18-2.43-0.36-3.78-0.55c0.85-5.81,1.7-11.62,2.58-17.65
			C341.13,283.2,342.31,283.37,343.65,283.57z"/>
		<path d="M334.08,322.79c1.32,0.19,2.43,0.36,3.72,0.54c-0.78,5.33-1.53,10.47-2.31,15.82c-1.3-0.19-2.41-0.35-3.72-0.54
			C332.52,333.43,333.28,328.28,334.08,322.79z"/>
		<path d="M330.59,338.48c-1.16-0.17-2.18-0.32-3.42-0.5c0.75-5.15,1.5-10.29,2.3-15.74c1.01,0.15,2.09,0.31,3.42,0.5
			C332.14,327.86,331.37,333.08,330.59,338.48z"/>
		<path d="M331.48,340.41c1.34,0.2,2.38,0.35,3.68,0.54c-0.76,5.19-1.51,10.3-2.3,15.71c-1.16-0.17-2.33-0.34-3.68-0.54
			C329.93,350.97,330.68,345.85,331.48,340.41z"/>
		<path d="M332.68,358.77c-0.74,5.05-1.43,9.8-2.18,14.89c-1.26-0.18-2.43-0.36-3.79-0.55c0.7-4.81,1.42-9.69,2.18-14.89
			C330.02,358.38,331.18,358.55,332.68,358.77z"/>
		<path d="M355.73,174.34c1.33,0.19,2.51,0.37,3.81,0.56c-0.72,4.92-1.39,9.53-2.11,14.44c-1.31-0.19-2.48-0.36-3.81-0.56
			C354.33,183.95,355.02,179.22,355.73,174.34z"/>
		<path d="M352.55,188.76c-1.29-0.19-2.31-0.34-3.52-0.51c0.71-4.88,1.41-9.63,2.14-14.62c1.18,0.17,2.27,0.33,3.52,0.51
			C353.97,179.04,353.29,183.67,352.55,188.76z"/>
		<path d="M326.39,375.2c1.36,0.2,2.4,0.35,3.68,0.54c-0.67,4.56-1.32,9-2.01,13.76c-1.18-0.17-2.34-0.34-3.68-0.54
			C325.04,384.43,325.69,379.98,326.39,375.2z"/>
		<path d="M311.28,373.15c-0.66,4.55-1.32,9.02-2,13.71c-1.15-0.17-2.16-0.32-3.43-0.5c0.66-4.5,1.31-8.95,2-13.71
			C308.95,372.81,310.02,372.97,311.28,373.15z"/>
		<path d="M318.06,431.74c0.6-4.11,1.18-8.06,1.79-12.28c1.27,0.19,2.44,0.36,3.81,0.56c-0.59,4.04-1.17,7.99-1.79,12.28
			C320.72,432.12,319.55,431.95,318.06,431.74z"/>
		<path d="M301.41,416.66c1.23,0.18,2.26,0.33,3.45,0.5c-0.62,4.23-1.21,8.3-1.83,12.55c-1.16-0.17-2.18-0.32-3.45-0.5
			C300.17,425.12,300.77,421.06,301.41,416.66z"/>
		<path d="M297.62,442.44c1.29,0.19,2.31,0.34,3.48,0.51c-0.53,3.61-1.03,7.05-1.58,10.79c-1.08-0.16-2.17-0.32-3.48-0.51
			C296.55,449.77,297.06,446.24,297.62,442.44z"/>
		<path d="M316.17,445.19c1.37,0.2,2.48,0.36,3.76,0.55c-0.53,3.62-1.03,7.02-1.57,10.74c-1.23-0.18-2.4-0.35-3.76-0.55
			C315.11,452.46,315.62,448.94,316.17,445.19z"/>
		<path d="M320.17,417.48c0.55-3.77,1.07-7.3,1.61-11.04c1.31,0.19,2.47,0.36,3.8,0.56c-0.55,3.77-1.06,7.28-1.61,11.04
			C322.7,417.85,321.59,417.69,320.17,417.48z"/>
		<path d="M305.08,415.34c-1.12-0.16-2.14-0.31-3.4-0.5c0.54-3.71,1.07-7.35,1.63-11.17c1.14,0.17,2.17,0.32,3.4,0.5
			C306.18,407.83,305.65,411.49,305.08,415.34z"/>
		<path d="M317.66,298.57c-1,6.86-1.79,12.44-2.67,17.99c-0.09,0.55-0.72,1-1.1,1.5c-0.31-0.63-0.95-1.3-0.87-1.89
			c0.65-5.07,1.39-10.14,2.25-15.18C315.37,300.34,316.35,299.85,317.66,298.57z"/>
		<path d="M338.9,321.17c0.85-5.83,1.71-11.67,2.56-17.5c0.25-0.21,0.51-0.41,0.76-0.62c0.34,0.83,1.05,1.7,0.95,2.48
			c-0.58,4.81-1.28,9.61-2.1,14.39c-0.14,0.82-1.03,1.49-1.57,2.23C339.3,321.83,339.1,321.5,338.9,321.17z"/>
		<path d="M295.72,455.18c1.21,0.18,2.24,0.33,3.47,0.51c-0.47,3.19-0.93,6.34-1.43,9.76c-1.11-0.16-2.2-0.32-3.47-0.51
			C294.78,461.62,295.23,458.49,295.72,455.18z"/>
		<path d="M312.83,467.65c0.48-3.25,0.92-6.28,1.41-9.61c1.2,0.18,2.37,0.35,3.77,0.55c-0.46,3.13-0.91,6.23-1.41,9.61
			C315.31,468.01,314.14,467.84,312.83,467.65z"/>
		<path d="M354.6,215.27c1.29,4.02-1.34,21.78-3.47,23.74C352.28,231.12,353.38,223.61,354.6,215.27z"/>
		<path d="M330.03,212.49c-1.09,7.48-2.19,14.95-3.32,22.73c-0.5-0.37-1.2-0.67-1.17-0.88c1.02-7.38,2.11-14.75,3.18-22.12
			C329.15,212.31,329.59,212.4,330.03,212.49z"/>
		<path d="M326.67,405.08c0.68-4.65,1.31-8.98,1.95-13.36c2.78-0.91,2.26,1.61,2.05,3.67C329.7,404.96,329.54,405.34,326.67,405.08z
			"/>
		<path d="M320.22,443.75c-1.35-0.2-2.46-0.36-3.76-0.55c0.46-3.12,0.9-6.12,1.37-9.38c1.24,0.18,2.42,0.35,3.76,0.55
			C321.13,437.5,320.71,440.39,320.22,443.75z"/>
		<path d="M269.11,679.18c3.67,0.54,6.56,0.85,9.41,1.45c0.72,0.15,1.29,1.18,1.93,1.81c-0.83,0.35-1.7,1.05-2.48,0.98
			c-2.9-0.26-5.79-0.68-8.64-1.27c-0.72-0.15-1.29-1.18-1.93-1.81C268.18,679.81,268.96,679.28,269.11,679.18z"/>
		<path d="M297.83,440.34c0.45-3.08,0.87-5.97,1.34-9.17c1.17,0.17,2.25,0.33,3.53,0.52c-0.42,2.89-0.86,5.88-1.34,9.17
			C300.32,440.71,299.24,440.55,297.83,440.34z"/>
		<path d="M267,693.67c3.83,0.56,6.82,0.93,9.77,1.49c0.6,0.11,1.07,0.97,1.6,1.48c-0.68,0.47-1.41,1.38-2.03,1.33
			c-3-0.27-5.98-0.71-8.93-1.29c-0.79-0.16-1.45-1.02-2.18-1.56C266.04,694.46,266.83,693.81,267,693.67z"/>
		<path d="M302.65,401.31c-2.23,0.65-2.76-0.39-2.33-2.89c0.58-3.42,1.02-6.87,1.54-10.39c1.7-0.58,2.86-0.86,2.45,1.99
			C303.76,393.72,303.22,397.42,302.65,401.31z"/>
		<path d="M314.4,320.24c-0.73,5.02-1.47,10.05-2.2,15.07c-0.23,0.25-0.46,0.5-0.69,0.75c-0.43-0.87-1.29-1.77-1.2-2.61
			c0.41-3.87,1-7.73,1.71-11.56c0.18-0.97,1.07-1.77,1.63-2.65C313.9,319.57,314.15,319.9,314.4,320.24z"/>
		<path d="M338.64,323.47c2.22,0.75,2.22,0.75,0.29,12.86c-0.29,1.79-0.26,4.15-2.59,2.87C337.1,334,337.87,328.75,338.64,323.47z"
			/>
		<path d="M335.02,357.71c-0.38-0.9-1.18-1.83-1.09-2.68c0.52-4.54,1.26-9.07,1.92-13.6c0.29-0.21,0.59-0.42,0.88-0.63
			c0.38,0.94,1.16,1.92,1.06,2.83c-0.49,4.41-1.22,8.81-1.86,13.21C335.63,357.12,335.32,357.41,335.02,357.71z"/>
		<path d="M307.42,352.7c0.64-4.4,1.22-8.81,1.99-13.19c0.14-0.8,1.05-1.44,1.6-2.16c0.21,0.83,0.69,1.68,0.59,2.48
			c-0.45,3.76-0.96,7.53-1.66,11.24c-0.19,0.99-1.16,1.8-1.77,2.69C307.91,353.4,307.66,353.05,307.42,352.7z"/>
		<path d="M347.97,271.77c-0.41,2.79-0.75,5.6-1.27,8.37c-0.12,0.62-0.85,1.09-1.3,1.63c-0.18-0.63-0.59-1.29-0.51-1.89
			c0.76-5.6,1.57-11.19,2.46-16.77c0.1-0.6,0.83-1.09,1.27-1.64c0.16,0.63,0.53,1.28,0.45,1.89c-0.33,2.8-0.78,5.6-1.19,8.39
			C347.91,271.76,347.94,271.77,347.97,271.77z"/>
		<path d="M320.31,267.81c0.39-2.66,0.7-5.34,1.21-7.97c0.15-0.78,0.84-1.43,1.28-2.14c0.17,0.75,0.56,1.52,0.47,2.24
			c-0.71,5.33-1.48,10.66-2.34,15.96c-0.12,0.76-0.87,1.41-1.33,2.11c-0.17-0.88-0.55-1.77-0.46-2.63c0.26-2.53,0.7-5.06,1.07-7.58
			C320.25,267.8,320.28,267.81,320.31,267.81z"/>
		<path d="M310,487.22c0.4-2.74,0.78-5.34,1.2-8.18c1.24,0.18,2.41,0.35,3.77,0.55c-0.4,2.73-0.78,5.31-1.2,8.18
			C312.55,487.59,311.46,487.43,310,487.22z"/>
		<path d="M335.58,359.03c-0.76,5.23-1.48,10.1-2.19,14.96c-1.89,0.73-2.23-0.2-1.97-2.54C332.68,360.06,333,358.93,335.58,359.03z"
			/>
		<path d="M290.87,685.36c-1.24-0.18-2.51-0.24-3.7-0.61c-0.49-0.15-0.82-0.99-1.23-1.51c0.5-0.46,1.06-1.34,1.5-1.3
			c2.78,0.26,5.54,0.67,8.29,1.2c0.48,0.09,0.82,0.99,1.22,1.52c-0.6,0.44-1.22,1.26-1.79,1.26
			C293.71,685.92,292.29,685.57,290.87,685.36z"/>
		<path d="M291.38,484.47c0.42-2.84,0.78-5.35,1.19-8.13c1.19,0.17,2.28,0.33,3.55,0.52c-0.38,2.59-0.76,5.2-1.19,8.13
			C293.83,484.83,292.75,484.67,291.38,484.47z"/>
		<path d="M308.37,498.44c0.49-3.33,0.85-5.79,1.3-8.91c1.28,0.5,3.35,0.64,3.44,1.47c0.23,2.04-0.16,4.58-0.91,6.54
			C311.91,498.32,310.01,498.11,308.37,498.44z"/>
		<path d="M304.94,369.57c0.7-4.76,1.39-9.52,2.11-14.42c1.65-0.64,2.43-0.2,2.02,2.35c-0.57,3.58-0.96,7.21-1.66,10.76
			c-0.18,0.92-1.21,1.63-1.84,2.44C305.36,370.32,305.15,369.94,304.94,369.57z"/>
		<path d="M256.09,680.25c-1.43-0.21-2.88-0.32-4.27-0.69c-0.38-0.1-0.6-0.98-0.9-1.5c0.42-0.44,0.89-1.3,1.24-1.26
			c2.97,0.31,5.92,0.74,8.86,1.28c0.37,0.07,0.6,0.98,0.89,1.5c-0.51,0.44-1.05,1.24-1.53,1.24c-1.44-0.02-2.86-0.35-4.29-0.56
			C256.09,680.26,256.09,680.26,256.09,680.25z"/>
		<path d="M254.11,694.78c-1.43-0.21-2.89-0.29-4.27-0.7c-0.44-0.13-0.68-1.13-1.01-1.73c0.46-0.38,0.96-1.11,1.36-1.07
			c2.87,0.31,5.73,0.71,8.57,1.27c0.42,0.08,0.68,1.13,1.01,1.73c-0.45,0.37-0.94,1.08-1.36,1.06
			C256.96,695.29,255.54,694.99,254.11,694.78z"/>
		<path d="M289.94,697.05c1.33,0.19,2.69,0.29,3.99,0.65c0.38,0.11,0.6,0.98,0.9,1.5c-0.42,0.44-0.89,1.3-1.24,1.26
			c-2.97-0.31-5.92-0.74-8.86-1.28c-0.37-0.07-0.6-0.98-0.89-1.51c0.51-0.44,1.06-1.25,1.53-1.24c1.54,0.04,3.05,0.38,4.58,0.6
			C289.94,697.04,289.94,697.05,289.94,697.05z"/>
		<path d="M291.24,487.18c1.01,0.15,2.02,0.3,3.25,0.48c-0.38,2.61-0.75,5.16-1.16,7.95c-1.04-0.08-1.97-0.16-3.28-0.27
			C290.43,492.7,290.8,490.2,291.24,487.18z"/>
		<path d="M351.68,240.3c0.14,0.65,0.46,1.32,0.38,1.94c-0.68,5.22-1.39,10.44-2.19,15.65c-0.11,0.69-0.74,1.3-1.14,1.94
			c-0.24-0.45-0.74-0.92-0.68-1.33c0.83-6.05,1.73-12.1,2.61-18.14C351,240.33,351.34,240.31,351.68,240.3z"/>
		<path d="M305.87,379.22c-0.25,1.74-0.38,3.52-0.82,5.19c-0.19,0.72-1,1.2-1.53,1.79c-0.3-0.64-0.92-1.31-0.85-1.91
			c0.42-3.62,0.95-7.23,1.6-10.81c0.1-0.55,1.03-1.36,1.44-1.27c0.4,0.08,0.9,1.15,0.86,1.81
			C306.48,375.74,306.12,377.48,305.87,379.22z"/>
		<path d="M326.69,236.53c-0.93,6.37-1.8,12.42-2.74,18.46c-0.06,0.4-0.67,0.86-1.05,0.98c-0.19,0.06-0.68-0.64-0.64-0.93
			c0.98-6.09,2.02-12.17,3.08-18.25C325.36,236.73,325.71,236.72,326.69,236.53z"/>
		<path d="M332.28,383.07c-0.25,1.74-0.38,3.52-0.82,5.19c-0.19,0.72-1,1.2-1.53,1.8c-0.3-0.64-0.92-1.31-0.85-1.91
			c0.42-3.62,0.95-7.23,1.59-10.82c0.1-0.54,1.03-1.36,1.44-1.27c0.4,0.09,0.91,1.15,0.87,1.8
			C332.89,379.59,332.53,381.34,332.28,383.07z"/>
		<path d="M312.64,469.43c1.37,0.2,2.4,0.35,3.68,0.54c-0.36,2.49-0.7,4.82-1.1,7.52c-1.12-0.16-2.3-0.34-3.67-0.54
			C311.88,474.6,312.24,472.15,312.64,469.43z"/>
		<path d="M306.99,507.29c0.38-2.59,0.71-4.85,1.08-7.41c1.26,0.18,2.43,0.36,3.82,0.56c-0.35,2.4-0.69,4.73-1.08,7.41
			C309.53,507.66,308.3,507.48,306.99,507.29z"/>
		<path d="M358.93,191.55c-1.12,7.63-2.23,15.26-3.35,22.89c-0.26-0.04-0.51-0.07-0.77-0.11c1.12-7.63,2.23-15.26,3.35-22.89
			C358.41,191.47,358.67,191.51,358.93,191.55z"/>
		<path d="M289.6,497.04c1.2,0.18,2.23,0.33,3.46,0.51c-0.36,2.47-0.72,4.91-1.11,7.62c-1.11-0.16-2.19-0.32-3.46-0.51
			C288.87,502.1,289.22,499.65,289.6,497.04z"/>
		<path d="M344.88,292.92c-0.33,2.28-0.6,4.57-1.04,6.82c-0.14,0.71-0.76,1.3-1.16,1.95c-0.24-0.69-0.76-1.4-0.68-2.05
			c0.6-4.7,1.28-9.39,2.04-14.06c0.11-0.7,0.76-1.31,1.16-1.96c0.22,0.82,0.7,1.66,0.62,2.47
			C345.64,288.37,345.22,290.65,344.88,292.92z"/>
		<path d="M296.4,474.88c-1.19-0.17-2.27-0.33-3.51-0.51c0.37-2.55,0.71-4.89,1.1-7.53c1.18,0.17,2.24,0.33,3.51,0.51
			C297.14,469.82,296.78,472.26,296.4,474.88z"/>
		<path d="M319.09,288.78c-0.37,2.54-0.69,5.1-1.16,7.62c-0.1,0.56-0.72,1.02-1.11,1.52c-0.25-0.56-0.77-1.16-0.71-1.68
			c0.65-4.96,1.37-9.92,2.17-14.86c0.09-0.56,0.73-1.02,1.11-1.53c0.23,0.7,0.72,1.42,0.65,2.11c-0.21,2.28-0.62,4.55-0.95,6.83
			C319.09,288.78,319.09,288.78,319.09,288.78z"/>
		<path d="M329.35,210.6c1.12-7.63,2.23-15.26,3.35-22.89c0.32,0.04,0.63,0.07,0.95,0.11c-0.67,7.65-2.07,15.23-3.16,22.84
			C330.11,210.64,329.73,210.62,329.35,210.6z"/>
		<path d="M315.74,500.67c-0.42,2.9-0.77,5.24-1.14,7.82c-1.03-0.15-1.91-0.28-2.95-0.43c0.36-2.49,0.71-4.83,1.1-7.55
			C313.64,500.55,314.53,500.6,315.74,500.67z"/>
		<path d="M284.41,504.35c0.43-2.95,0.77-5.29,1.15-7.84c1.04,0.15,1.93,0.28,2.97,0.43c-0.37,2.5-0.71,4.84-1.11,7.58
			C286.5,504.47,285.61,504.42,284.41,504.35z"/>
		<path d="M358.32,189.52c0.71-4.84,1.42-9.68,2.12-14.52c0.22,0.03,0.45,0.05,0.67,0.08c-0.71,4.84-1.42,9.68-2.12,14.52
			C358.76,189.58,358.54,189.55,358.32,189.52z"/>
		<path d="M335.96,171.41c-0.71,4.84-1.42,9.68-2.12,14.52c-0.27-0.02-0.54-0.05-0.81-0.07c0.11-4.9,1.35-9.7,2.01-14.56
			C335.35,171.34,335.65,171.38,335.96,171.41z"/>
		<path d="M283.01,685.03c-0.67-1.1-1.15-1.9-1.64-2.69c0.63-0.36,1.35-1.13,1.88-0.99c0.76,0.2,1.39,1.06,2.08,1.64
			C284.69,683.55,284.04,684.12,283.01,685.03z"/>
		<path d="M281.55,694.98c0.73,1.17,1.19,1.9,1.65,2.62c-0.82,0.36-1.67,1-2.46,0.98c-0.55-0.02-1.02-0.96-1.52-1.49
			C279.9,696.47,280.6,695.85,281.55,694.98z"/>
		<path d="M264.26,682.17c-0.6-1.03-1.03-1.75-1.45-2.48c0.7-0.38,1.47-1.13,2.1-1.02c0.6,0.1,1.07,1.09,1.59,1.7
			C265.85,680.89,265.21,681.41,264.26,682.17z"/>
		<path d="M262.32,696.69c-0.7-1-1.17-1.68-1.65-2.37c0.68-0.42,1.41-1.24,2.02-1.17c0.63,0.07,1.14,1.01,1.71,1.57
			C263.79,695.3,263.19,695.87,262.32,696.69z"/>
		<path class="st0" d="M217.93,624.6c1.58-8.64,2.95-17.35,4.81-25.91c1.37-6.31,4.03-11.91,8.1-15.92
			c5.65-5.57,11.83-3.11,12.96,5.14c0.22,1.59,0.1,3.52-0.34,5.1c-0.27,0.99-1.44,2.17-2.19,2.25c-0.78,0.09-1.9-0.79-2.21-1.73
			c-0.3-0.91-0.06-2.99,0.48-3.59c2.13-2.34,2.6-4.63,0.94-7.18c-1.5-2.3-5.13-2.47-6.88,0.4c-2.24,3.68-4.73,7.83-5.59,12.16
			c-2.53,12.72-4.02,25.7-6.48,38.44c-1.52,7.89-3.57,15.82-6.28,23.2c-1.64,4.47-4.7,8.49-7.68,11.67
			c-3.4,3.64-8.1,3.08-10.84-0.21c-2.95-3.55-3.77-8.35-2.27-13.7c0.54-1.91,2.25-4.05,3.64-4.61c0.84-0.34,2.58,1.85,3.04,3.47
			c0.76,2.68-0.74,4.5-2.62,5.56c-2.09,1.18-1.9,3.36-1.42,5.41c1.3,5.56,6.07,6.23,9.76,1.24c4.54-6.13,7.13-13.64,8.46-21.83
			c1.05-6.42,1.9-12.87,2.84-19.31C218.11,624.64,218.02,624.62,217.93,624.6z"/>
		<path class="st0" d="M340.01,635.9c0.92-8.07,2.2-16.15,2.62-24.2c0.22-4.22-0.62-8.7-1.85-12.43c-0.63-1.9-3.06-3.17-4.85-3.37
			c-2.81-0.32-4.18,3.31-3.2,6.92c0.34,1.28,0.09,3.27-0.42,4.6c-0.26,0.67-2.13,1.22-2.52,0.72c-0.75-0.96-1.46-2.74-1.31-4.12
			c0.78-7.03,6.52-11.5,11.1-8.84c3.12,1.82,4.95,5.26,5.99,9.64c1.66,7.03,1.24,14.41,0.28,21.84
			c-1.79,13.83-3.81,27.64-5.41,41.48c-0.76,6.58,0.36,12.82,2.56,18.33c1.99,4.96,6.22,5.42,9.04,1.22
			c1.45-2.16,2.07-4.17,0.28-6.58c-0.81-1.09-1.15-3.96-0.64-5.45c0.46-1.35,2.6-2.91,3.56-2.58c1.12,0.39,2.29,2.52,2.52,4.25
			c0.62,4.65-2.17,10.79-5.58,13.27c-3.74,2.71-8.08,2.02-10.9-2.1c-4-5.85-5.04-13.6-4.65-21.62c0.5-10.33,1.75-20.69,2.67-31.03
			C339.53,635.88,339.77,635.89,340.01,635.9z"/>
		<path class="st0" d="M367.38,105.41c-2.16-0.38-3.46-3.36-2.97-6.82c0.43-3.04,2.67-5.38,4.81-5.03c2.1,0.35,3.59,3.44,3.08,6.35
			C371.68,103.4,369.54,105.79,367.38,105.41z"/>
		<path class="st0" d="M354,97.23c-0.55,3.37-2.77,5.86-4.9,5.49c-2.21-0.38-3.63-3.8-2.99-7.16c0.53-2.77,2.79-4.99,4.75-4.67
			C352.88,91.22,354.46,94.41,354,97.23z"/>
		<path class="st0" d="M376.12,73.72c-0.46,2.95-2.79,5.33-4.88,4.97c-2.14-0.37-3.53-3.29-3.01-6.31c0.51-2.96,2.85-5.2,4.93-4.73
			C375.13,68.09,376.55,70.99,376.12,73.72z"/>
		<path class="st0" d="M346.89,117.76c2.07,0.26,3.59,2.97,3.25,5.78c-0.38,3.11-2.51,5.36-4.78,5.04c-2.21-0.32-3.6-2.77-3.25-5.71
			C342.47,119.81,344.65,117.47,346.89,117.76z"/>
		<path class="st0" d="M357.8,70.89c-0.42,2.98-2.78,5.48-4.84,5.13c-1.98-0.33-3.46-3.18-3.12-6.01c0.35-2.93,2.7-5.38,4.86-5.06
			C356.74,65.24,358.2,68.04,357.8,70.89z"/>
		<path class="st0" d="M368.17,126.73c-0.5,2.99-2.45,4.9-4.65,4.54c-2.31-0.38-3.63-3.04-2.97-6.21c0.68-3.29,2.38-4.77,4.69-4.57
			C367.53,120.7,368.73,123.41,368.17,126.73z"/>
	</g>
</g>
<g id="Vrstva_1">
</g>
</svg>
