<?xml version="1.0" encoding="utf-8"?>
<!-- Generator: Adobe Illustrator 25.0.0, SVG Export Plug-In . SVG Version: 6.00 Build 0)  -->
<svg version="1.1" id="Vrstva_1" xmlns="http://www.w3.org/2000/svg" xmlns:xlink="http://www.w3.org/1999/xlink" x="0px" y="0px"
	 viewBox="0 0 595.3 841.9" style="enable-background:new 0 0 595.3 841.9;" xml:space="preserve">
<style type="text/css">
	.st0{fill:#FFFFFF;}
</style>
<g id="Vrstva_2_1_">
	<g>
		<path class="st0" d="M235.8,820.9c-74,12.7-148,25.3-222,38c30.3-268.2,60.5-536.3,90.8-804.6C273.7,25.3,442.8-3.6,612.3-32.6
			c-25.3,224.3-50.6,448.6-76,673c-0.3-0.5-0.9-1-0.9-1.6c-0.3-27.5-14.4-49.7-35.7-69.1c-9.9-9-20.8-17.5-30.8-26.4
			c-5.7-5.1-7.3-11.7-4.6-19.2c4.4-12,9.4-24,14.6-36.1c7.8-18.3,14.3-36.4,13.1-53.6c-1.6-22.7-16.4-38-51.4-41.8
			c-10.9-1.2-22.2-2-33.9-1.8c-18.4,0.4-37.4,1.9-56.9,2.9c0.2-1.3,0.3-3.1,0.6-4.9c0.5-3.1-2.2-2.5-5.9-1.1
			c-0.4,3.7-0.8,7.3-1.2,11c1.9,0.1,3.5,0.1,7.1,0.2c-3.8,1.1-5.6,1.7-7.2,2.2c-0.5,4.4-1,8.6-1.4,12.7c1.9-0.1,3.5-0.1,6.5-0.2
			c-3.3,1.3-5.2,2-6.7,2.6c-0.4,3.4-0.7,6.4-1,9.2c2.4-0.1,4.3-0.2,6.2-0.2c-0.1,0.3-0.2,0.5-0.3,0.8c-2.1,0.6-4.2,1.2-6.2,1.8
			c-0.4,3.8-0.8,7.4-1.2,10.9c2.2,0,4-0.1,5.9-0.1c-0.1,0.2-0.2,0.4-0.2,0.7c-2.1,0.7-4.1,1.3-5.8,1.8c-0.4,3.5-0.8,6.6-1.1,9.7
			c2.3,0,4.1,0,5.9,0c-0.1,0.2-0.2,0.4-0.3,0.6c-1.9,0.5-3.8,0.9-6,1.5c-0.3,2.7-0.6,5.2-0.9,7.6c2.3,0,4.3,0,6.4,0
			c-0.1,0.2-0.2,0.4-0.3,0.6c-2.1,0.6-4.3,1.1-6.1,1.6c-0.3,3-0.6,5.8-0.9,8.4c2.6-0.1,4.6-0.1,6.6-0.2c-0.1,0.3-0.2,0.7-0.3,1
			c-2.3,0.8-4.6,1.5-6.6,2.2c-0.3,2.8-0.6,5.3-0.7,6.6c7.4,0.9,14.1,1.1,19.5,2.5c17.9,4.7,28.7,13.5,32.3,26.4
			c6.7,24.1-17.7,54.3-58.2,71.3c-4.2,1.8-6,3.2-6.3,6.1c-2.7,26.1-5.8,52.2-8.7,78.3c-0.1,1.2,0,2.3,0,3.7c8.2-1.4,15.8-2.8,23.5-4
			c10.6-1.6,21.3-3.6,31.5-4.5c4.5-0.4,9.6,0.9,11.7,2.9c3.1,3,5.9,5.6,12.6,5.3c-0.1,8.9-1.3,9.8-15.2,12.2
			c-63.9,10.9-127.7,21.9-191.6,32.8c-2.3,0.4-4.6,0.9-6.7,1c-4.3,0.4-6.7-0.7-6.5-3.5c0.1-1.6,0.4-3.3,0.5-4.9
			c0.5,0.1,1,0.3,1.6,0.4c3.6-2.6,8.3-5.1,10.5-7.9c4.1-5.1,9.5-8.6,17.3-10.3c8.1-1.8,16.2-3.2,24.4-4.7c9.6-1.7,19.3-3.3,29-5
			c0.3-1.1,0.6-1.6,0.6-2.2c3.1-26.9,6-53.9,9.2-80.8c0.3-2.5-1.7-2.9-4.7-3.2c-17.2-1.8-30.6-6.5-39.1-15.5
			c-9.8-10.4-12.4-22.6-5.9-37.1c9.1-20.5,28.5-37.2,61-49.3c0.2-1.8,0.5-4.3,0.8-6.8c-2.5,0-4.6,0-6.7,0c0.1-0.3,0.2-0.7,0.3-1
			c2.2-0.7,4.5-1.4,6.8-2.2c0.3-2.8,0.6-5.5,0.9-8.2c-2.3,0.1-4.3,0.3-6.3,0.4c0-0.2,0.1-0.5,0.1-0.7c2.2-0.7,4.4-1.3,6.3-1.9
			c0.3-2.8,0.6-5.2,0.9-7.6c-2.3,0.1-4.3,0.2-6.2,0.4c0.1-0.3,0.2-0.5,0.3-0.8c2.1-0.5,4.2-1.1,6.3-1.7c0.4-3.4,0.7-6.5,1.1-9.8
			c-2.2,0.1-4.2,0.3-6.2,0.4c0-0.2,0-0.5,0.1-0.7c2.2-0.7,4.4-1.3,6.3-1.9c0.4-3.9,0.8-7.5,1.2-10.9c-2.2,0.1-4,0.2-5.8,0.3
			c0-0.2,0-0.5,0-0.7c2-0.7,4-1.3,6.2-2.1c0.3-3,0.7-6,1-9.2c-1.8,0-3.5,0-5.2,0c0-0.2,0.1-0.5,0.1-0.7c1.8-0.5,3.6-1,5.3-1.5
			c0.5-4.4,1-8.5,1.4-12.6c-1.9,0-3.5-0.1-6.2-0.1c3.1-1.2,4.9-1.8,6.4-2.4c0.4-3.9,0.8-7.5,1.3-11.4c-11,2.1-3.5,6.7-8.7,9.7
			c-24.6,5.7-49.7,12.5-74.3,21.8c-36.7,13.8-64.5,31.6-76.3,56.9c-5.4,11.5-8.7,22.8-7.5,33.3c1.8,15.3,3.6,30.7,8.5,45
			c6.3,18.5,0.1,36.5-23.3,56.3c-11.1,9.4-19.8,19.6-29.3,29.6c-31.5,32.9-47,65.7-49,98.2c-0.9,15.4,3.1,29.4,11.9,41.8
			c11.7,16.4,33.9,25.7,60.4,31.5c30.9,6.8,66.6,6.2,103.6,3C214.2,823,225,821.9,235.8,820.9z M301.2,106.9c-6.4,1-13.7,4-15.4-1.1
			c-0.1-0.3-0.9-0.6-1.4-0.5c-4.8,1.1-10.1,1.6-14.3,3.5c-4.8,2.2-6.3,8.3-4.6,11.7c1.5,3,5.4,2.8,10.6,2.4c7.7-0.7,9.8-4,11.8-7.5
			c4.5-0.8,8.5-1.5,13.2-2.3c-1.3,5.9-2.8,11.5-3.5,17c-0.2,1.8,0.7,3.8,2.5,4.8c6.9,4.3,11.5,9.5,11.7,16.7c0,1.3,0.4,2.5,0.6,3.7
			c21-3.6,41.3-7.1,61.5-10.5c6.7-15.1,9.1-18.2,17.8-25.4c2.1-1.7,3.5-4.1,3.7-5.9c0.5-5.6,0.3-11.1,0.4-16.6
			c3.8-0.6,6.5-1.1,9-1.5c2.9,5,5.4,5.6,14.5,2.9c6.7-2,8.2-5.6,9-9.1c1.1-4.5-2-7.6-6.7-7.4c-7.8,0.3-12,2.2-16,7.3
			c-2.8,0.5-5.6,1-8.5,1.4c0.8-7.2,1.6-14.2,2.4-21.2c3.3-0.6,6-1,8.6-1.5c-0.5,0.4-0.9,0.8-1.3,1.1c2.4,1.3,4.3,3.7,7.4,3.6
			c4.8-0.1,11.9-0.6,14.3-5.1c2-3.8,2.1-7.8,1.5-11.2c-0.2-1.2-5-1.9-8-1.5c-3.5,0.5-9.2,2-10.6,3.6c-3,3.5-6,3.8-10.8,4
			c1.4-6.4,2.7-12.5,4.3-18.8c0.2-0.8,2.2-1.8,3.4-2.8c1.2,0.5,3.3,0.8,3.5,1.6c0.8,2.7,3.5,2.9,8,2.1c5.1-1,10.8-1.7,12.6-5.6
			c1.4-3.1,2.1-6.7,0.9-9.2c-0.8-1.6-5.4-2.4-8.7-2.2c-4,0.2-9.1,0.9-11.4,5c-0.5,1-3,1.9-4.5,2.9c-0.5-0.2-1-0.4-1.5-0.6
			c2.8-9.3,5.7-18.6,8.7-28.5c-15,5.1-27.4,4.6-39.6,3.6c-5.1-0.4-10.3-0.8-16,2.6c-0.7,0.4-2,0.4-3,0.5c-4.9,0.8-10,1.1-14.7,2.5
			c-8,2.4-15.7,5.9-23.7,8.2c-5.8,1.7-11.9,2.2-17.8,3.2c0.8,8.6,1.5,17.3,2.4,27.1c-4.4-0.2-9.1,0.4-9.4-0.4
			c-1.6-4.9-8.3-2.1-13.3-1.2c-5.8,1-9.3,4.8-9.7,9.9c-0.4,4.8,2.5,6.9,8.3,6.3c7.4-0.7,13.5-2.5,15-9.3c4,0.5,9,0.2,9.1,1.2
			c0.9,6,0.6,12.2,0.7,19.8c-5.7-0.2-10.9,0.6-13.3-0.6c-3.7-1.9-13.5-1.9-17.9,1.5c-5.9,4.5-5.5,8.7-3.9,12.6
			c1.4,3.4,6.5,2.4,11.6,1.9c8-0.8,8.6-4.6,10.4-7.9c4.2-0.7,8.1-1.4,12.7-2.2C302.8,92.8,302,99.6,301.2,106.9z M308.9,588.2
			c-10.4,1.8-20.3,3.5-30.5,5.2c-3.1,27.3-6.2,54.9-9.3,82.6c10.3-1.8,20.2-3.5,30.5-5.2C302.7,643.2,305.8,615.7,308.9,588.2z
			 M288.5,501.3c-3,26.1-5.9,51.7-8.5,77.4c-0.1,0.9,2.7,2.1,4.6,1.9c6-0.6,12.2-1.9,18.3-2.8c5.8-0.9,8.2-2.5,8.6-6.4
			c2.4-23.7,5.2-47.4,7.9-71.1c0.2-1.3,0.1-2.7,0.1-4.2C309,497.8,299.2,499.5,288.5,501.3z M324,570.2c9.6-3.6,13.5-6,24.8-15.4
			c23.9-19.8,26.4-44.1,5.5-55.9c-3.8-2.2-8.8-3.6-13.5-5.1c-2-0.6-4.7-0.6-8.1-1.1C329.7,519.3,326.9,544.6,324,570.2z
			 M266.7,580.1c2.9-25.7,5.8-51.1,8.6-76.5c-13,1.6-34,19.6-41.3,34.9C223.8,560,242,578.5,266.7,580.1z M310.9,669.1
			c3.2-28.5,6.4-56.6,9.6-85.1c-3.5,1.1-6.2,2-8.8,2.9c-3.2,28.1-6.3,55.9-9.4,83.7C305.3,670,307.8,669.6,310.9,669.1z M268,593.1
			c-3.2,28.6-6.4,56.7-9.6,84.8c3.1-0.5,5.7-1,8.3-1.4c3.2-28,6.3-55.7,9.4-83.5C273.4,592.9,270.9,593,268,593.1z M309.7,222.2
			c10.5-1.8,20.4-3.5,30.4-5.2c0.9-7.9,1.7-15.5,2.6-23.1c-10.3,1.8-20.1,3.4-30.4,5.2C311.5,206.8,310.6,214.4,309.7,222.2z
			 M343,191.9c0.9-8,1.8-15.7,2.7-23.6c-10.2,1.7-20.1,3.4-30.4,5.2c-0.9,7.9-1.8,15.7-2.7,23.6C322.8,195.4,332.5,193.7,343,191.9z
			 M321.9,495.6c-3,26.6-6,52.8-8.9,79c7.7-1.3,9.7-3.9,10.2-8.2c2.2-22.4,4.9-44.9,7.5-67.3c0.2-1.6,0.4-3.2,0.6-5.1
			C327.6,494.6,325.1,495,321.9,495.6z M278,503.1c-0.3,1.7-0.7,3.1-0.9,4.4c-2.6,23-5.2,46.1-7.8,69.1c-0.5,4.8-0.1,4.9,8.1,3.8
			c3-26.2,5.9-52.4,8.9-78.8C283.6,502.1,281.2,502.5,278,503.1z M331.5,373.5c-5.4,4.3-13-0.5-19.1,5.4c-2.7-2.3-6.9-1.7-10,0.6
			c-4.2,0.3-7.1,0.5-10.5,0.8c-0.6,5.2-1.1,9.7-1.6,14.3c3-0.5,5.6-1,8.5-1.5c0.4-3.6,0.8-6.8,1.1-10.1c1-0.2,2-0.4,3-0.7
			c0.2,1.3,0.7,2.5,0.3,3.9c-0.7,2.1-2,4.3-3.3,6.8c4.1-0.7,6.7-1.1,9.6-1.6c0.7-1.7,1.3-3.2,1.9-4.8c0.2,0,0.5,0,0.7,0
			c0.1,1.4,0.2,2.8,0.3,4.9c7-3.6,15.3,0,21.1-7c0.2,0.9,0.4,1.7,0.6,2.5c3-0.5,5.8-1,8.8-1.5c0.5-4.7,1-9.1,1.6-13.8
			c-3.1,0.5-5.9,1-9.2,1.6c-0.3,3-0.7,5.8-1,9C324.5,381.1,337.1,375.7,331.5,373.5z M297.7,328.5c-0.6,5.4-1.2,10.8-1.8,16.3
			c13.9-2.4,27.4-4.7,41.3-7.1c0.6-5.5,1.2-10.8,1.8-16.2c-3,0.5-5.6,1-9,1.5c-0.3,2.8-0.6,5.3-0.9,7.9c-0.4,0-0.8,0.1-1.1,0.1
			c0.1-2.5,0.2-5.1,0.2-7.7C317.9,325,308,326.7,297.7,328.5z M307,246c-0.8,7.1-1.6,13.8-2.3,20.7c10.4-1.8,20.3-3.5,30.3-5.2
			c0.8-7.1,1.6-13.9,2.3-20.7C327,242.6,317.3,244.3,307,246z M295.7,346.7c-0.6,5.4-1.2,10.5-1.7,15.4c13.9-2.4,27.4-4.7,41-7
			c0.6-5.1,1.2-10.3,1.7-15.4C322.8,342.1,309.6,344.3,295.7,346.7z M339.9,219.1c-10.5,1.8-20.4,3.5-30.3,5.2
			c-0.8,6.8-1.5,13.2-2.2,19.8c10.3-1.8,20.1-3.4,30.3-5.2C338.4,232.3,339.1,225.8,339.9,219.1z M332.6,284.2
			c-10.3,1.8-20.3,3.5-30.3,5.2c-0.7,6.4-1.4,12.6-2.1,18.8c10.4-1.8,20.1-3.4,30.3-5.2C331.2,296.7,331.9,290.5,332.6,284.2z
			 M304.4,269c-0.7,6.2-1.4,12.2-2.1,18.3c10.4-1.8,20.3-3.5,30.3-5.2c0.7-6.3,1.4-12.3,2.1-18.3C324.4,265.6,314.6,267.3,304.4,269
			z M297.9,326.4c10.7-1.8,20.5-3.5,30.6-5.2c0.6-5.6,1.2-10.8,1.8-16.2c-10.3,1.8-20.2,3.5-30.6,5.2
			C299.2,315.6,298.6,320.9,297.9,326.4z M345.8,166.4c0.6-5.1,1.1-10,1.7-15.1c-10.3,1.8-20.3,3.5-30.3,5.2
			c-0.6,5.2-1.1,10.1-1.7,15.1C325.9,169.8,335.6,168.2,345.8,166.4z M334.9,357.5c-10.3,1.8-20.1,3.4-30.4,5.2
			c-0.5,4.7-1.1,9.4-1.6,14.2c10.2-1.8,20.1-3.4,30.4-5.2C333.8,366.9,334.4,362.2,334.9,357.5z M310.1,407.5
			c-3.4,0.1-6.8,0.1-10.8,0.2c-0.6,5.1-1,9.2-1.5,13.5c3.1-0.5,5.9-1,8.7-1.5c0.6-1.5,1.1-2.7,1.6-3.9c0.3,0,0.5-0.1,0.8-0.1
			c0.1,1.2,0.3,2.4,0.4,3.5c6.6-1.1,12.8-2.2,19.2-3.3c0.5-4.4,1-8.5,1.5-13.3c-3.9,1.1-7.5,2.7-10.6,2.8
			C315.4,405.6,311.9,404.4,310.1,407.5z M307.9,404.9c0.8-1.2,1.4-2.3,2.5-3.9c0.3,1.5,0.5,2.5,0.7,3.4c6.5-1.1,12.5-2.1,18.8-3.2
			c0.5-3.9,0.9-7.7,1.3-11.8c-7.1,1.4-13.6,2.7-20.1,4c0.1,0.1,0.3,0.2,0.4,0.3c-3.4,0.2-6.8,0.4-10.6,0.7c-0.5,4.5-0.9,8.1-1.3,12
			C302.4,405.9,304.8,405.5,307.9,404.9z M306.4,444.3c6.7-1.1,12.7-2.2,19.1-3.3c0.4-3.8,0.8-7.5,1.3-11.3
			c-5.6,0.1-11.3,3.1-16.6,2.7c-0.8-0.1-2.9,1.7-4.3,2.7c0.2-0.4,0.5-0.7,0.7-1.1c-3.2,0.1-6.5,0.2-10.1,0.3
			c-0.5,4.5-0.9,8.1-1.3,11.9c4.7-0.7,9.4-0.4,10.9-4.8C306.1,442.4,306.2,443.3,306.4,444.3z M325.6,443.4
			c-10.9,1.9-20.6,3.5-30.9,5.3c-0.3,2.8-0.7,6.1-1.2,10.5c4.5-1.8,7.9-3.1,11-4.4c0.4,0.2,1.6,1.3,3,1.2c5.4-0.7,10.8-1.7,16.6-2.7
			c0.4-2,0.7-3.3,0.9-4.7C325.3,446.7,325.5,445,325.6,443.4z M296.4,433.7c4.3-1.6,7.8-2.9,10.9-4c4.7,2.9,12.9-1.9,19.6-1.5
			c0.4-3.7,0.8-6.9,1.2-10.3c-10.1,1.2-20.3,4.6-30.4,5C297.3,426.5,296.9,429.6,296.4,433.7z M302.2,475.6
			c5.1,2.2,12.9-2.1,19.6-1.9c0.4-3.4,0.7-6.1,0.9-8.4c-10.3,1.8-20.2,3.5-30.4,5.2c-0.3,2.4-0.6,5.2-1,8.9
			C295.5,477.9,298.7,476.8,302.2,475.6z M293.7,683.6c3.6,2.8,7.4,1.3,11.3-1c2.7,0.1,5.6-0.1,8.3-1c0.6-0.2,0.5-2.6,0.7-4
			c-3,0.5-6.1,1-10.5,1.8c-2.3-2-6.1,0.1-10,3c-3.3-3.3-7.1-0.9-10.7,1.9c-3.1-2.9-6.8-1.4-10.7,1.7c-3.5-2.7-7.2-1.1-11.1,1.2
			c-2.7-0.1-5.6,0.1-8.2,0.9c-0.7,0.2-0.7,2.4-1,3.7c3.1-0.4,6.2-0.8,11.2-1.5c1.9,1.2,5.6,0.5,9.4-3.1c3.4,3,7.2,1.2,10.9-1.7
			C286.4,688,289.8,687.5,293.7,683.6z M291.2,481.6c-0.3,2.4-0.6,5-1,8.6c4.2-1.5,7.6-2.7,10.8-3.8c4.9,2.5,12.9-2.2,19.6-1.7
			c0.4-3.3,0.7-5.8,0.9-8.3C311.5,478.1,301.9,479.7,291.2,481.6z M289.1,500.3c4.4-1.7,7.7-3,10.2-4c5.6,2.2,13.4-1.9,20.1-1.7
			c0.3-3.1,0.6-5.7,0.9-8c-10.4,1.8-20.3,3.5-30.8,5.3c-0.1,1.3-0.4,2.7-0.4,4C289,497,289.1,498,289.1,500.3z M304,465
			c0.9,1.4,5.7,1,19-2.4c0.3-2.5,0.6-5,0.8-7.2c-10.4,1.8-20.3,3.5-30.4,5.2c-0.3,2.4-0.5,4.8-0.9,8.1
			C296.5,467.4,299.9,466.3,304,465z M359.3,166c-0.9,8.1-1.8,15.9-2.7,23.9c3.3-0.7,5.8-1.2,8.6-1.7c0.9-8.1,1.8-15.8,2.7-23.6
			C364.8,165.1,362.2,165.5,359.3,166z M348.2,167.8c-0.9,8.1-1.8,15.8-2.7,23.6c3-0.5,5.5-0.9,8.3-1.4c0.9-8,1.8-15.7,2.7-23.6
			C353.6,166.9,351.2,167.3,348.2,167.8z M345.4,193.3c-0.9,8-1.8,15.6-2.6,23.2c3-0.5,5.6-0.9,8.2-1.4c0.9-7.9,1.7-15.4,2.6-23.2
			C350.8,192.4,348.4,192.8,345.4,193.3z M362.5,213.3c0.9-7.9,1.7-15.4,2.6-23.3c-3.1,0.5-5.9,1-9,1.5c-0.9,7.8-1.7,15.5-2.6,23.3
			C356.5,214.3,359.1,213.9,362.5,213.3z M350.8,238.5c-0.8,7.2-1.6,13.9-2.4,20.8c3.1-0.5,5.9-1,8.8-1.5c0.8-7.1,1.6-13.9,2.4-20.8
			C356.5,237.5,353.9,238,350.8,238.5z M346,259.8c0.8-7.2,1.6-13.9,2.4-20.9c-2.9,0.5-5.5,0.9-8.3,1.4c-0.8,7-1.6,13.8-2.4,20.9
			C340.5,260.7,342.9,260.3,346,259.8z M342.5,218.6c-0.8,6.8-1.5,13.3-2.2,19.8c2.9-0.5,5.5-0.9,8.3-1.4c0.8-6.7,1.5-13.2,2.2-19.8
			C347.9,217.6,345.5,218,342.5,218.6z M351,236.6c3.3-0.6,5.9-1,8.7-1.5c0.8-6.7,1.5-13.3,2.2-19.8c-3.2,0.5-5.8,1-8.7,1.5
			C352.5,223.4,351.8,229.8,351,236.6z M341.3,301.2c0.7-6.5,1.4-12.7,2.1-18.9c-3,0.5-5.6,0.9-8.3,1.4c-0.7,6.4-1.4,12.5-2.1,18.9
			C335.7,302.1,338.1,301.7,341.3,301.2z M352.6,299.2c0.7-6.6,1.4-12.7,2.1-18.9c-3.2,0.5-5.8,1-8.8,1.5
			c-0.7,6.4-1.4,12.5-2.1,18.9C346.8,300.2,349.4,299.8,352.6,299.2z M345.7,262c-3.1,0.5-5.7,1-8.2,1.4c-0.7,6.3-1.4,12.4-2.1,18.4
			c2.9-0.5,5.4-0.9,8.2-1.4C344.3,274.2,345,268.3,345.7,262z M357.2,260c-3.2,0.5-5.9,1-8.9,1.5c-0.7,6.2-1.4,12.2-2.1,18.3
			c3.2-0.5,5.9-1,8.9-1.5C355.8,272,356.5,266.1,357.2,260z M343.7,302.7c-0.6,5.7-1.3,11-1.8,16.4c3.1-0.5,5.7-1,8.8-1.5
			c0.6-5.5,1.2-10.9,1.8-16.4C349.4,301.7,346.8,302.1,343.7,302.7z M339.1,319.5c0.6-5.6,1.2-11,1.8-16.3c-3.1,0.5-5.7,1-8.1,1.4
			c-0.6,5.7-1.2,11-1.8,16.3C333.9,320.4,336.3,320,339.1,319.5z M341.6,320.9c-0.6,5.6-1.2,10.9-1.8,16.3c3.2-0.5,6-1,8.7-1.5
			c0.6-5.6,1.2-10.9,1.8-16.3C347.2,319.9,344.7,320.4,341.6,320.9z M348.5,337.8c-3.5,0.6-6.3,1.1-8.9,1.5
			c-0.6,5.4-1.2,10.4-1.7,15.4c3.2-0.5,6-1,8.9-1.5C347.3,347.9,347.9,343,348.5,337.8z M360.9,149.1c-0.6,5-1.1,9.9-1.7,14.9
			c3.1-0.5,5.9-1,9-1.5c0.6-5.1,1.1-9.8,1.7-14.9C366.8,148.1,364.1,148.6,360.9,149.1z M356.7,164.6c0.6-5.3,1.1-10.1,1.7-15.1
			c-2.9,0.5-5.5,0.9-8.3,1.4c-0.6,5.2-1.1,10.1-1.7,15.1C351.3,165.5,353.7,165.1,356.7,164.6z M337.5,356.9
			c-0.6,4.9-1.1,9.6-1.6,14.2c3.2-0.5,5.9-1,8.7-1.5c0.6-4.9,1.1-9.5,1.6-14.2C343.2,355.9,340.7,356.3,337.5,356.9z M301.9,363.1
			c-3,0.5-5.5,0.9-8.1,1.4c-0.6,4.9-1.1,9.5-1.6,14.2c3-0.5,5.4-0.9,8.1-1.4C300.9,372.5,301.4,367.9,301.9,363.1z M330.8,415.4
			c3.5-0.6,6.3-1.1,9-1.5c0.5-4.4,1-8.5,1.4-12.7c-3.2,0.6-6,1-9,1.5C331.7,407.1,331.2,411.2,330.8,415.4z M288.7,410.1
			c-0.5,4.6-1,8.8-1.5,13c3-0.5,5.4-0.9,8.1-1.4c0.5-4.4,1-8.6,1.5-13C294,409.2,291.6,409.6,288.7,410.1z M285.6,436.8
			c-0.4,3.9-0.9,7.6-1.3,11.2c3.1-0.5,5.7-1,8.2-1.4c0.4-3.9,0.8-7.4,1.3-11.2C291.1,435.8,288.7,436.2,285.6,436.8z M329.3,429.3
			c-0.4,3.9-0.8,7.5-1.3,11.1c3.2-0.5,6-1,8.9-1.5c0.4-3.8,0.8-7.4,1.3-11.1C335.2,428.3,332.6,428.8,329.3,429.3z M332.5,400.7
			c3.3-0.6,6-1,9-1.5c0.4-3.9,0.8-7.5,1.3-11.4c-3.1,0.5-5.9,1-9,1.5C333.3,393.1,332.9,396.8,332.5,400.7z M296.9,406.8
			c0.4-4,0.9-7.8,1.3-11.6c-2.9,0.5-5.4,0.9-8,1.4c-0.4,4-0.9,7.7-1.3,11.6C291.9,407.7,294.3,407.3,296.9,406.8z M300.1,288.4
			c-2.8,1.9-4.9,2.9-5,3.6c-0.9,5.3-1.4,10.5-1.8,15.7c-0.1,0.6,1.6,0.9,2.4,1.3c0.8-0.7,2.2-1.5,2.2-2
			C298.7,301.3,299.3,295.5,300.1,288.4z M354.5,298.5c0.5,0.2,1.1,0.4,1.6,0.6c1.1-1,3-2.1,3.2-3c0.8-5,1.4-10,1.7-14.9
			c0-0.8-1.8-1.2-2.8-1.9c-0.5,0.3-1.1,0.7-1.6,1C355.9,286.4,355.2,292.5,354.5,298.5z M284,450c-0.4,3.4-0.7,6.7-1.1,10.1
			c3-0.5,5.6-0.9,8.2-1.4c0.4-3.5,0.8-6.8,1.1-10.1C289.3,449,286.9,449.5,284,450z M326.6,452.6c3.1-0.5,5.8-1,8.9-1.5
			c0.4-3.5,0.8-6.7,1.1-9.9c-3.3,0.6-6,1-8.9,1.5C327.3,446.1,327,449.2,326.6,452.6z M367.4,188.8c-1,8.6-1.9,16.4-2.8,24.6
			C369.1,210.3,371.3,191.9,367.4,188.8z M309.6,199.5c-1,0.2-2.1,0.3-3.1,0.5c-0.9,7.6-1.7,15.3-2.5,22.9c0,0.2,1.7,0.1,2.9,0.2
			C307.9,215,308.8,207.2,309.6,199.5z M344.8,385.3c6.7-1.3,7-1.8,7.2-11.4c0-2.1,0.7-4.8-5.6-2.4
			C345.9,376,345.4,380.5,344.8,385.3z M338.4,425.7c0.4-3.5,0.7-6.5,1.1-9.7c-3.2,0.5-5.9,1-8.9,1.5c-0.4,3.4-0.7,6.5-1.1,9.7
			C332.6,426.7,335.3,426.3,338.4,425.7z M272.1,678.4c-0.3,0.2-2,1.1-3.7,2c1.6,0.3,3.2,0.9,4.9,0.7c6.8-1,13.6-2.2,20.4-3.5
			c1.8-0.4,3.7-1.5,5.5-2.3c-1.6-0.3-3.2-0.9-4.9-0.7C287.6,675.6,280.8,676.9,272.1,678.4z M285.6,434.6c3.3-0.6,5.9-1,8.3-1.4
			c0.4-3.4,0.7-6.5,1.1-9.5c-3,0.5-5.5,1-8.3,1.4C286.3,428.5,286,431.5,285.6,434.6z M270.5,693.4c-0.4,0.2-2.1,1.3-3.7,2.3
			c1.8,0.1,3.5,0.6,5.4,0.3c7-1,14-2.2,21.1-3.6c1.5-0.3,2.9-1.6,4.4-2.4c-1.3-0.2-2.6-0.8-4.1-0.5
			C286.5,690.6,279.5,691.8,270.5,693.4z M288.1,394.7c0.5-4,0.9-7.9,1.3-11.7c0.3-2.9-2.3-2-6.1-0.6c-0.4,3.6-0.7,7.2-1.3,10.8
			C281.6,395.9,283.1,396.6,288.1,394.7z M297.4,310.9c-0.7-0.2-1.3-0.4-2-0.5c-1.1,1.1-3,2.4-3.2,3.4c-0.8,4-1.3,8.1-1.4,12
			c0,0.9,2.2,1.2,3.4,1.8c0.5-0.4,1-0.7,1.4-1.1C296.2,321.3,296.8,316.1,297.4,310.9z M354.5,300.8c-0.6,5.5-1.2,10.9-1.8,16.3
			c5.7,0,5.1-2.3,5.4-4.1C359.8,300.3,359.8,300.3,354.5,300.8z M353.7,335.5c0.7-0.4,1.3-0.9,1.9-1.3c0.5-4.6,1.2-9.2,1.4-13.6
			c0-0.9-2-1.4-3.1-2.1c-0.6,0.4-1.3,0.7-1.9,1.1c-0.5,4.7-1.2,9.4-1.4,14C350.5,334.4,352.6,334.8,353.7,335.5z M288.4,345.7
			c0.7,0.2,1.3,0.4,2,0.6c1.2-1.2,3.3-2.5,3.5-3.5c0.8-3.9,1.2-7.8,1.4-11.6c0.1-0.8-1.3-1.4-1.9-2c-1.1,1-3.1,2.1-3.2,2.9
			C289.2,336.6,288.9,341.2,288.4,345.7z M364.6,246.4c-0.1,0-0.1,0-0.2,0c0.3-2.9,0.8-5.8,0.9-8.7c0-0.6-1-1-1.5-1.6
			c-0.9,0.8-2.5,1.6-2.6,2.3c-0.8,5.8-1.5,11.6-2,17.4c-0.1,0.6,1,1,1.6,1.5c0.9-0.8,2.5-1.6,2.7-2.3
			C364.1,252.1,364.3,249.3,364.6,246.4z M299.4,257.6c-0.1,0-0.1,0-0.2,0c-0.3,2.6-0.8,5.3-0.8,7.8c0,0.9,1.1,1.5,1.7,2.3
			c0.9-0.9,2.5-1.9,2.6-2.7c0.8-5.5,1.4-11,1.9-16.5c0.1-0.7-1-1.3-1.6-1.9c-0.9,0.9-2.3,1.9-2.5,2.7
			C299.8,252.1,299.7,254.9,299.4,257.6z M324.4,472.8c3.4-0.6,6-1,8.9-1.5c0.3-3,0.6-5.7,1-8.5c-3.2,0.5-6,1-8.9,1.5
			C325,467.3,324.7,470,324.4,472.8z M355.3,336.5c-6,1.3-6.5,2.6-6.9,14.1c-0.1,2.4,0.9,3.1,5.1,1.4
			C354.1,346.9,354.7,341.9,355.3,336.5z M324.1,672.5c3.4-0.6,6.8-1,10.1-1.8c1.3-0.3,2.6-1.4,3.9-2.2c-1-0.3-2.1-0.9-3.2-0.8
			c-6.5,1-13,2.1-19.5,3.4c-1,0.2-2.1,1.3-3.2,2.1c1,0.3,2,0.9,3.2,0.8C318.2,673.6,321.2,673,324.1,672.5z M280.5,480.3
			c3.2-0.6,5.8-1,8.4-1.4c0.3-3,0.6-5.7,1-8.4c-3,0.5-5.5,1-8.4,1.4C281.1,474.8,280.8,477.4,280.5,480.3z M323.1,484.4
			c3.7-1.2,8.2-2,8.7-2.9c1.3-2.3,1.6-4.9,0.7-6.7c-0.4-0.7-5.3,0.2-8.3,0.5C323.8,478.4,323.5,481,323.1,484.4z M286.4,363.2
			c0.6,0.2,1.1,0.5,1.7,0.7c1.3-1.1,3.5-2.4,3.7-3.3c0.8-3.8,0.9-7.4,1.5-11.2c0.4-2.7-1.5-2.7-5.2-1.1
			C287.5,353.3,286.9,358.2,286.4,363.2z M242.1,686.5C242.1,686.5,242.1,686.5,242.1,686.5c3.4-0.6,6.8-1,10.1-1.8
			c1.1-0.3,2.2-1.3,3.3-2c-0.8-0.3-1.5-1.1-2.4-0.9c-6.9,1.1-13.9,2.3-20.9,3.6c-0.8,0.2-1.7,1.2-2.6,1.9c0.8,0.3,1.5,1.1,2.4,0.9
			C235.3,687.7,238.7,687.1,242.1,686.5z M240.7,701.4c3.4-0.6,6.7-1.1,10.1-1.8c1-0.2,1.9-1.1,2.9-1.8c-0.9-0.4-1.7-1.3-2.7-1.1
			c-6.7,1-13.5,2.2-20.2,3.4c-0.9,0.2-1.9,1.1-2.9,1.8c0.9,0.4,1.7,1.2,2.7,1.1C234,702.7,237.4,702,240.7,701.4z M324.6,684.1
			C324.5,684.1,324.5,684.1,324.6,684.1c-3.6,0.6-7.2,1.1-10.8,1.9c-1.1,0.3-2.2,1.3-3.3,2c0.8,0.3,1.5,1.1,2.4,1
			c6.9-1.1,13.9-2.3,20.9-3.6c0.8-0.2,1.7-1.2,2.6-1.9c-0.8-0.3-1.5-1.1-2.4-0.9C330.9,683,327.7,683.6,324.6,684.1z M280.7,483
			c-0.3,3.1-0.7,5.7-0.9,8.4c3.1-0.6,5.3-1.1,7.7-1.5c0.3-2.9,0.6-5.5,0.9-8.2C285.5,482.1,283.1,482.5,280.7,483z M366.2,214.3
			c-0.8,0.2-1.6,0.4-2.4,0.6c-0.7,6.3-1.4,12.5-2,18.7c0,0.4,1.2,0.6,1.9,0.9c0.8-0.8,2.1-1.8,2.2-2.5c0.7-5.4,1.2-10.8,1.6-16.1
			C367.6,215.3,366.7,214.8,366.2,214.3z M290.7,371.9c0.2-1.8,0.6-3.7,0.5-5.4c-0.1-0.6-1.5-1.4-2.4-1.3c-1,0.1-3,1.4-3.1,2
			c-0.7,3.8-1.1,7.5-1.3,11.2c0,0.6,1.6,0.9,2.4,1.4c1.1-0.9,2.9-1.8,3.2-2.5C290.6,375.5,290.5,373.7,290.7,371.9z M307.3,224.3
			c-2.3,0.7-3.1,0.9-3.1,1c-1.1,6.4-2.1,12.8-3.1,19.1c-0.1,0.3,1.3,0.7,1.7,0.5c0.9-0.3,2.2-1.1,2.2-1.5
			C305.9,237.1,306.5,230.9,307.3,224.3z M352.9,361.2c0.2-1.8,0.6-3.7,0.5-5.4c-0.1-0.6-1.5-1.4-2.4-1.2c-1,0.1-3,1.4-3.1,2
			c-0.7,3.8-1.1,7.5-1.3,11.2c0,0.6,1.6,0.9,2.4,1.4c1.1-0.9,2.9-1.8,3.2-2.6C352.8,364.8,352.8,363,352.9,361.2z M326.5,454.4
			c-0.3,2.8-0.6,5.4-0.9,7.8c3.3-0.6,6-1,8.7-1.5c0.3-2.8,0.6-5.2,0.9-7.8C332.2,453.4,329.8,453.8,326.5,454.4z M321.9,493.6
			c3.1-0.5,6-1,9-1.5c0.3-2.8,0.6-5.2,0.9-7.7c-3.3,0.6-6,1-9,1.5C322.4,488.6,322.2,490.9,321.9,493.6z M372.2,163.8
			c-0.6,0.1-1.2,0.2-1.8,0.3c-0.9,7.9-1.8,15.8-2.7,23.7c0.6-0.1,1.2-0.2,1.8-0.3C370.4,179.6,371.3,171.7,372.2,163.8z
			 M279.2,493.3c-0.3,2.7-0.6,5.2-0.9,7.9c3-0.5,5.5-0.9,8.2-1.4c0.3-2.8,0.6-5.3,0.9-7.9C284.4,492.4,282,492.8,279.2,493.3z
			 M362.2,268.3c0.3-2.4,0.7-4.8,0.7-7c0-0.8-1.3-1.4-2-2c-0.8,0.8-2.2,1.8-2.3,2.5c-0.7,4.9-1.3,9.7-1.6,14.5c0,0.7,1.3,1.1,2,1.6
			c0.8-0.8,2.1-1.7,2.3-2.5C361.8,272.9,361.9,270.6,362.2,268.3z M290,468.4c0.3-2.7,0.6-5.2,0.9-7.8c-3,0.5-5.5,0.9-8.3,1.4
			c-0.3,2.7-0.6,5.1-0.9,7.8C284.6,469.3,287.2,468.9,290,468.4z M301.2,278.3L301.2,278.3c0.3-2.4,0.7-4.8,0.7-7
			c0-0.7-1.3-1.1-2-1.7c-0.8,0.7-2.2,1.5-2.2,2.1c-0.7,5.1-1.3,10.3-1.7,15.4c0,0.5,1.3,0.8,2,1.2c0.8-0.7,2.1-1.5,2.2-2.1
			C300.8,283.6,300.9,280.9,301.2,278.3z M307.6,198.1c0.9-0.2,1.8-0.4,2.7-0.6c0.8-7.9,2.4-15.8,2.3-23.5c-0.8,0.1-1.5,0.3-2.2,0.4
			C309.4,182.3,308.5,190.2,307.6,198.1z M340.7,482.5c-2.8,0.6-4.9,1-7,1.5c-0.3,2.8-0.6,5.2-0.9,7.8c2.5-0.4,4.5-0.8,7-1.2
			C340.1,488,340.4,485.5,340.7,482.5z M268.7,503.1c2.8-0.6,4.9-1,7-1.5c0.3-2.8,0.6-5.3,0.9-7.8c-2.5,0.4-4.6,0.8-7,1.2
			C269.3,497.6,269,500,268.7,503.1z M370.3,162.2c0.5-0.1,1.1-0.2,1.6-0.3c0.6-5,1.1-10,1.7-15c-0.5,0.1-1.1,0.2-1.6,0.3
			C371.5,152.2,370.9,157.2,370.3,162.2z M314.3,157c-0.7,0.1-1.4,0.3-2.1,0.4c-0.5,5-2.3,10.3-1.4,15c0.6-0.1,1.3-0.2,1.9-0.4
			C313.2,167,313.7,162,314.3,157z M305.8,676.4c2.2-1.4,3.6-2.3,4.9-3.2c-1.7-0.2-3.4-0.7-5.2-0.4c-1.3,0.2-2.8,1.3-4.2,2
			C302.7,675.2,304,675.7,305.8,676.4z M304.6,686.7c-2,1.3-3.5,2.3-5,3.3c1.3,0.2,2.6,0.9,3.9,0.6c1.8-0.4,3.7-1.5,5.5-2.3
			C307.8,687.9,306.6,687.4,304.6,686.7z M261.5,683.9c2-1.2,3.4-2.1,4.8-2.9c-1.4-0.3-2.7-1-4.1-0.8c-1.5,0.2-3.1,1.4-4.7,2.1
			C258.8,682.8,259.9,683.2,261.5,683.9z M260.3,698.8c1.8-1.2,3.1-2.1,4.4-3c-1.4-0.2-2.8-0.8-4.3-0.6c-1.4,0.3-3,1.4-4.4,2.2
			C257.1,697.8,258.4,698.2,260.3,698.8z"/>
		<path d="M235.8,820.9c-10.8,1-21.6,2.1-32.3,3.1c-37,3.2-72.7,3.8-103.6-3c-26.5-5.8-48.7-15.1-60.4-31.5
			c-8.8-12.4-12.8-26.3-11.9-41.8c1.9-32.6,17.4-65.3,49-98.2c9.5-9.9,18.2-20.2,29.3-29.6c23.4-19.8,29.6-37.8,23.3-56.3
			c-4.9-14.3-6.7-29.8-8.5-45c-1.2-10.5,2.1-21.8,7.5-33.3c11.8-25.3,39.6-43.1,76.3-56.9c24.6-9.2,49.6-16.1,74.3-21.8
			c5.2-3-2.3-7.6,8.7-9.7c-0.4,3.9-0.8,7.4-1.3,11.4c-1.5,0.5-3.3,1.2-6.4,2.4c2.7,0,4.3,0.1,6.2,0.1c-0.4,4.1-0.9,8.2-1.4,12.6
			c-1.8,0.5-3.6,1-5.3,1.5c0,0.2-0.1,0.5-0.1,0.7c1.7,0,3.5,0,5.2,0c-0.4,3.2-0.7,6.2-1,9.2c-2.2,0.7-4.2,1.4-6.2,2.1
			c0,0.2,0,0.5,0,0.7c1.8-0.1,3.6-0.2,5.8-0.3c-0.4,3.5-0.8,7.1-1.2,10.9c-1.9,0.6-4.1,1.3-6.3,1.9c0,0.2,0,0.5-0.1,0.7
			c2-0.1,4-0.2,6.2-0.4c-0.4,3.3-0.7,6.5-1.1,9.8c-2.1,0.6-4.2,1.1-6.3,1.7c-0.1,0.3-0.2,0.5-0.3,0.8c1.9-0.1,3.8-0.2,6.2-0.4
			c-0.3,2.4-0.5,4.8-0.9,7.6c-1.9,0.6-4.1,1.3-6.3,1.9c0,0.2-0.1,0.5-0.1,0.7c2-0.1,4-0.3,6.3-0.4c-0.3,2.7-0.6,5.4-0.9,8.2
			c-2.4,0.8-4.6,1.5-6.8,2.2c-0.1,0.3-0.2,0.7-0.3,1c2.1,0,4.1,0,6.7,0c-0.3,2.5-0.6,5-0.8,6.8c-32.5,12.1-51.9,28.8-61,49.3
			c-6.5,14.5-3.9,26.7,5.9,37.1c8.5,9,21.9,13.8,39.1,15.5c3,0.3,5,0.6,4.7,3.2c-3.2,27-6.2,53.9-9.2,80.8c-0.1,0.5-0.3,1.1-0.6,2.2
			c-9.7,1.7-19.3,3.2-29,5c-8.1,1.5-16.2,2.9-24.4,4.7c-7.8,1.7-13.3,5.2-17.3,10.3c-2.2,2.8-6.9,5.3-10.5,7.9
			c-0.5-0.1-1-0.3-1.6-0.4c-0.2,1.6-0.4,3.3-0.5,4.9c-0.2,2.8,2.2,3.9,6.5,3.5c2.2-0.2,4.5-0.6,6.7-1
			c63.9-10.9,127.7-21.9,191.6-32.8c13.9-2.4,15.1-3.3,15.2-12.2c-6.7,0.3-9.5-2.3-12.6-5.3c-2.1-2-7.2-3.3-11.7-2.9
			c-10.3,0.8-21,2.8-31.5,4.5c-7.6,1.2-15.3,2.6-23.5,4c0-1.4-0.2-2.5,0-3.7c2.9-26.1,6-52.2,8.7-78.3c0.3-2.9,2.1-4.3,6.3-6.1
			c40.5-17,64.9-47.2,58.2-71.3c-3.6-12.9-14.4-21.7-32.3-26.4c-5.4-1.4-12.1-1.6-19.5-2.5c0.1-1.3,0.4-3.8,0.7-6.6
			c2.1-0.7,4.4-1.5,6.6-2.2c0.1-0.3,0.2-0.7,0.3-1c-2,0.1-4.1,0.1-6.6,0.2c0.3-2.6,0.6-5.3,0.9-8.4c1.9-0.5,4-1.1,6.1-1.6
			c0.1-0.2,0.2-0.4,0.3-0.6c-2,0-4.1,0-6.4,0c0.3-2.4,0.6-4.9,0.9-7.6c2.2-0.5,4.1-1,6-1.5c0.1-0.2,0.2-0.4,0.3-0.6
			c-1.8,0-3.6,0-5.9,0c0.3-3,0.7-6.2,1.1-9.7c1.7-0.5,3.8-1.2,5.8-1.8c0.1-0.2,0.2-0.4,0.2-0.7c-1.9,0-3.7,0.1-5.9,0.1
			c0.4-3.5,0.8-7.1,1.2-10.9c2-0.6,4.1-1.2,6.2-1.8c0.1-0.3,0.2-0.5,0.3-0.8c-1.9,0.1-3.8,0.1-6.2,0.2c0.3-2.8,0.7-5.9,1-9.2
			c1.5-0.6,3.4-1.3,6.7-2.6c-3,0.1-4.6,0.2-6.5,0.2c0.5-4.1,0.9-8.2,1.4-12.7c1.6-0.5,3.4-1,7.2-2.2c-3.6-0.1-5.2-0.2-7.1-0.2
			c0.4-3.6,0.8-7.2,1.2-11c3.7-1.4,6.3-2,5.9,1.1c-0.3,1.8-0.4,3.6-0.6,4.9c19.5-1.1,38.5-2.5,56.9-2.9c11.7-0.3,23.1,0.6,33.9,1.8
			c35,3.8,49.7,19.1,51.4,41.8c1.2,17.2-5.3,35.3-13.1,53.6c-5.2,12-10.2,24.1-14.6,36.1c-2.8,7.5-1.1,14.1,4.6,19.2
			c10.1,8.9,20.9,17.4,30.8,26.4c21.4,19.4,35.5,41.7,35.7,69.1c0,0.6,0.6,1.1,0.9,1.6c-1.1,9.4-2.1,18.9-3.2,28.3
			c-0.6,1.1-1.2,2.2-1.7,3.3c-5.9,11.7-10.3,23.6-18.1,35.2c-13.9,20.8-38.5,38.2-66.4,53.5c-34.1,18.7-71.9,30.8-110.6,40.5
			c-11.4,2.9-22.8,5.6-34.3,8.3C280.1,813.3,257.9,817.1,235.8,820.9z M141,654c0.2,0,0.4-0.1,0.6-0.1c-0.7,6.7-1.3,13.3-2.3,20
			c-1.3,8.6-5.6,17.1-14.8,25.4c-7.5,6.8-18.7,8.7-23,4.1c-1.6-1.7-2.5-3.7,2.1-5.9c4.1-2,7.2-4.6,4.9-6.7c-1.4-1.3-6-2.4-7.8-1.7
			c-3.1,1.3-6.6,4.3-7.4,6.4c-2.3,5.9,0.7,10.1,8.3,11.9c7.1,1.7,18.2-0.4,25.3-5.7c6.2-4.7,12.4-10.2,15.3-15.3
			c4.7-8.5,7.7-17.2,9.4-25.6c2.9-13.5,3.4-26.7,6.5-40.2c1-4.6,5.9-9.9,10.3-14.7c3.4-3.7,11.9-5.5,15.9-4.1c4.4,1.5,3.8,4-0.6,7.4
			c-1.1,0.9-1.2,3-0.3,3.7c0.9,0.7,3.7,1,5.5,0.5c1.7-0.5,4.2-2.2,4.6-3.3c0.7-1.7,0.5-3.6-0.3-5.1c-4.5-7.3-19.4-6.3-31.3,2.1
			c-8.6,6-13.5,12.8-15.3,19.6C143.9,635.9,142.7,644.9,141,654z M427.4,598.5c-0.6,0.1-1.1,0.2-1.7,0.4c0.2,10.4-0.4,21,0.7,31.1
			c0.9,7.9,5,14.7,15.6,18.1c7.5,2.4,17.7,0.7,25.8-3.9c7.4-4.2,12.5-11.6,10-15.7c-0.9-1.5-4.1-2.9-6.8-2.7
			c-2.3,0.2-6.9,2.9-7.7,4.4c-0.9,1.7,0.6,4.3,2.7,4.9c4.7,1.3,3.7,3.6,0.8,6.4c-5.6,5.5-15.6,7.4-21.3,3.7
			c-6.4-4.1-10.4-9.4-10-16.1c0.7-14.1,2.3-28.4,3.3-42.6c0.6-7.6-0.1-14.9-5.5-20.7c-3.4-3.6-8.4-5.9-16.1-6
			c-11.2-0.1-23.6,7.3-23.8,14.5c0,1.4,2,2.7,4,3.2c1,0.3,5.2-1.3,5.7-2.1c0.9-1.5,1-3.6,0-4.6c-3.1-2.9-0.7-7.1,5.9-8.3
			c4.2-0.8,10.2-0.9,12,0.6c3.7,2.9,6.6,6.7,7.1,10.9C428.9,581.9,427.7,590.3,427.4,598.5z"/>
		<path class="st0" d="M302.2,809.5c11.4-2.8,22.9-5.5,34.3-8.3c38.6-9.7,76.5-21.8,110.6-40.5c27.9-15.3,52.5-32.7,66.4-53.5
			c7.8-11.6,12.2-23.5,18.1-35.2c0.6-1.1,1.1-2.2,1.7-3.3c-3.9,34.4-7.8,68.7-11.6,103.3C448.4,784.5,375.3,797,302.2,809.5z"/>
		<path d="M301.2,106.9c0.8-7.3,1.6-14.1,2.4-21.3c-4.6,0.8-8.5,1.4-12.7,2.2c-1.8,3.3-2.5,7-10.4,7.9c-5.1,0.5-10.2,1.5-11.6-1.9
			c-1.6-3.9-1.9-8.1,3.9-12.6c4.4-3.4,14.2-3.5,17.9-1.5c2.4,1.2,7.7,0.4,13.3,0.6c-0.1-7.5,0.2-13.8-0.7-19.8
			c-0.1-1-5.1-0.8-9.1-1.2c-1.4,6.8-7.5,8.5-15,9.3c-5.8,0.6-8.7-1.5-8.3-6.3c0.4-5.1,3.9-8.9,9.7-9.9c5.1-0.9,11.8-3.7,13.3,1.2
			c0.3,0.9,4.9,0.3,9.4,0.4c-0.9-9.8-1.6-18.5-2.4-27.1c5.8-1,11.9-1.5,17.8-3.2c8-2.3,15.7-5.8,23.7-8.2c4.7-1.4,9.8-1.7,14.7-2.5
			c1-0.2,2.3-0.1,3-0.5c5.7-3.4,10.9-3,16-2.6c12.3,1,24.7,1.5,39.6-3.6c-3,9.9-5.8,19.2-8.7,28.5c0.5,0.2,1,0.4,1.5,0.6
			c1.6-1,4-1.9,4.5-2.9c2.2-4.1,7.4-4.7,11.4-5c3.4-0.2,8,0.6,8.7,2.2c1.2,2.5,0.6,6-0.9,9.2c-1.8,4-7.5,4.7-12.6,5.6
			c-4.5,0.8-7.2,0.6-8-2.1c-0.2-0.8-2.3-1.1-3.5-1.6c-1.2,0.9-3.2,1.9-3.4,2.8c-1.6,6.2-2.9,12.4-4.3,18.8c4.8-0.2,7.7-0.5,10.8-4
			c1.4-1.6,7.1-3.2,10.6-3.6c3-0.4,7.8,0.3,8,1.5c0.6,3.4,0.5,7.4-1.5,11.2c-2.4,4.5-9.5,5-14.3,5.1c-3.1,0.1-5-2.3-7.4-3.6
			c0.5-0.4,0.9-0.8,1.3-1.1c-2.6,0.5-5.3,0.9-8.6,1.5c-0.8,7-1.6,14-2.4,21.2c2.8-0.5,5.7-1,8.5-1.4c4-5.1,8.2-7,16-7.3
			c4.8-0.2,7.8,2.9,6.7,7.4c-0.8,3.4-2.3,7.1-9,9.1c-9.1,2.7-11.7,2.2-14.5-2.9c-2.6,0.4-5.3,0.9-9,1.5c-0.1,5.5,0.1,11-0.4,16.6
			c-0.2,1.8-1.7,4.2-3.7,5.9c-8.7,7.3-11.1,10.4-17.8,25.4c-20.2,3.5-40.5,6.9-61.5,10.5c-0.2-1.2-0.6-2.4-0.6-3.7
			c-0.2-7.2-4.8-12.4-11.7-16.7c-1.7-1.1-2.7-3-2.5-4.8c0.7-5.5,2.2-11.2,3.5-17c-4.8,0.8-8.7,1.5-13.2,2.3c-2,3.5-4.2,6.8-11.8,7.5
			c-5.1,0.5-9,0.6-10.6-2.4c-1.8-3.4-0.3-9.5,4.6-11.7c4.2-1.9,9.5-2.4,14.3-3.5c0.5-0.1,1.3,0.2,1.4,0.5
			C287.5,110.9,294.8,107.9,301.2,106.9z M372.6,76.9c5.1-0.8,9.5-4.3,10.2-7.9c0.5-3.1-3.6-5.2-8.6-4.4c-5.1,0.8-9.7,4.3-10.1,7.4
			C363.8,75.6,367.5,77.7,372.6,76.9z M339.7,76.4c0.4-2.9-3.9-5.1-8.7-4.4c-4.6,0.8-9.4,4.1-10,7c-0.7,3.6,3.4,6,8.6,5.2
			C334.5,83.5,339.1,79.9,339.7,76.4z M385.9,41.9c0.4-2.8-3.6-4.8-8.2-4.2c-4.9,0.7-9.9,4.1-10.4,7.2c-0.5,3.2,3.3,5.2,8.4,4.4
			C380.6,48.5,385.5,45,385.9,41.9z M327.7,99.8c-5.3,0.9-9.8,4.4-10,7.5c-0.2,3,3.6,4.6,8.8,3.7c5.3-0.9,9.8-4.2,10-7.4
			C336.7,100.7,332.6,99,327.7,99.8z M342.7,49.1c0.3-2.9-3.7-4.8-8.6-4c-5.1,0.9-10,4.5-10.2,7.5c-0.2,2.9,3.9,4.8,8.6,4
			C337.4,55.9,342.3,52.2,342.7,49.1z M379.2,96.8c0.6-3.5-2.9-5.4-8.2-4.4c-5.4,1.1-9,3.4-9.9,6.9c-0.8,3.4,2.8,5.2,8.3,4.3
			C374.6,102.9,378.7,100,379.2,96.8z"/>
		<path d="M308.9,588.2c-3.1,27.5-6.2,54.9-9.3,82.6c-10.3,1.8-20.2,3.5-30.5,5.2c3.1-27.7,6.2-55.3,9.3-82.6
			C288.7,591.7,298.5,590,308.9,588.2z"/>
		<path d="M288.5,501.3c10.7-1.8,20.6-3.5,30.9-5.3c0,1.5,0,2.8-0.1,4.2c-2.7,23.7-5.5,47.5-7.9,71.1c-0.4,3.9-2.9,5.5-8.6,6.4
			c-6.1,0.9-12.3,2.2-18.3,2.8c-1.8,0.2-4.7-0.9-4.6-1.9C282.6,553,285.5,527.4,288.5,501.3z"/>
		<path d="M324,570.2c2.9-25.6,5.7-51,8.7-77.5c3.4,0.4,6.1,0.4,8.1,1.1c4.7,1.5,9.7,2.9,13.5,5.1c20.9,11.8,18.4,36.1-5.5,55.9
			C337.5,564.2,333.6,566.7,324,570.2z"/>
		<path d="M266.7,580.1c-24.7-1.6-42.9-20.1-32.7-41.6c7.3-15.3,28.3-33.3,41.3-34.9C272.5,529,269.6,554.4,266.7,580.1z"/>
		<path d="M310.9,669.1c-3.1,0.5-5.6,0.9-8.6,1.5c3.1-27.8,6.3-55.6,9.4-83.7c2.6-0.8,5.3-1.7,8.8-2.9
			C317.3,612.5,314.1,640.6,310.9,669.1z"/>
		<path d="M268,593.1c3-0.1,5.4-0.1,8.1-0.2c-3.1,27.8-6.3,55.5-9.4,83.5c-2.6,0.4-5.1,0.9-8.3,1.4
			C261.6,649.8,264.7,621.6,268,593.1z"/>
		<path d="M309.7,222.2c0.9-7.8,1.7-15.4,2.6-23.1c10.3-1.8,20.1-3.4,30.4-5.2c-0.9,7.7-1.7,15.2-2.6,23.1
			C330.1,218.7,320.2,220.4,309.7,222.2z"/>
		<path d="M343,191.9c-10.5,1.8-20.2,3.5-30.4,5.2c0.9-7.9,1.8-15.7,2.7-23.6c10.3-1.8,20.2-3.5,30.4-5.2
			C344.8,176.2,343.9,183.9,343,191.9z"/>
		<path d="M321.9,495.6c3.2-0.5,5.8-1,9.3-1.6c-0.2,1.9-0.4,3.5-0.6,5.1c-2.5,22.4-5.3,44.9-7.5,67.3c-0.4,4.3-2.5,6.9-10.2,8.2
			C315.9,548.4,318.9,522.1,321.9,495.6z"/>
		<path d="M278,503.1c3.3-0.6,5.7-1,8.4-1.4c-3,26.4-5.9,52.6-8.9,78.8c-8.3,1.2-8.7,1-8.1-3.8c2.6-23,5.2-46.1,7.8-69.1
			C277.3,506.1,277.6,504.7,278,503.1z"/>
		<path d="M331.5,373.5c5.7,2.2-7,7.7,2.9,8.7c0.4-3.2,0.7-6,1-9c3.3-0.6,6.1-1,9.2-1.6c-0.5,4.7-1,9.1-1.6,13.8
			c-3,0.5-5.8,1-8.8,1.5c-0.2-0.8-0.4-1.6-0.6-2.5c-5.7,7-14,3.4-21.1,7c-0.1-2.1-0.2-3.5-0.3-4.9c-0.2,0-0.5,0-0.7,0
			c-0.6,1.6-1.3,3.1-1.9,4.8c-2.9,0.5-5.4,0.9-9.6,1.6c1.3-2.6,2.6-4.7,3.3-6.8c0.4-1.3-0.2-2.6-0.3-3.9c-1,0.2-2,0.4-3,0.7
			c-0.4,3.2-0.7,6.5-1.1,10.1c-2.9,0.5-5.5,0.9-8.5,1.5c0.5-4.6,1-9.1,1.6-14.3c3.4-0.3,6.3-0.5,10.5-0.8c3.1-2.3,7.2-2.9,10-0.6
			C318.4,372.9,326.1,377.8,331.5,373.5z"/>
		<path d="M297.7,328.5c10.3-1.8,20.2-3.5,30.5-5.2c-0.1,2.7-0.2,5.2-0.2,7.7c0.4,0,0.8-0.1,1.1-0.1c0.3-2.5,0.6-5.1,0.9-7.9
			c3.4-0.6,5.9-1,9-1.5c-0.6,5.4-1.2,10.7-1.8,16.2c-13.9,2.4-27.4,4.7-41.3,7.1C296.5,339.3,297.1,333.9,297.7,328.5z"/>
		<path d="M307,246c10.3-1.8,20-3.4,30.3-5.2c-0.8,6.8-1.5,13.6-2.3,20.7c-10,1.7-20,3.4-30.3,5.2C305.4,259.8,306.2,253.1,307,246z
			"/>
		<path d="M295.7,346.7c13.9-2.4,27.1-4.6,41-7c-0.6,5.2-1.2,10.3-1.7,15.4c-13.6,2.3-27.1,4.6-41,7
			C294.5,357.2,295.1,352.1,295.7,346.7z"/>
		<path d="M339.9,219.1c-0.8,6.7-1.5,13.2-2.2,19.8c-10.2,1.8-20,3.4-30.3,5.2c0.7-6.6,1.5-13,2.2-19.8
			C319.5,222.6,329.4,220.9,339.9,219.1z"/>
		<path d="M332.6,284.2c-0.7,6.3-1.4,12.4-2.1,18.8c-10.2,1.7-19.9,3.4-30.3,5.2c0.7-6.2,1.4-12.3,2.1-18.8
			C312.2,287.7,322.3,286,332.6,284.2z"/>
		<path d="M304.4,269c10.2-1.8,20-3.4,30.3-5.2c-0.7,6.1-1.4,12.1-2.1,18.3c-10.1,1.7-20,3.4-30.3,5.2
			C303.1,281.2,303.7,275.2,304.4,269z"/>
		<path d="M297.9,326.4c0.6-5.5,1.2-10.8,1.8-16.2c10.4-1.8,20.3-3.5,30.6-5.2c-0.6,5.4-1.2,10.6-1.8,16.2
			C318.5,322.9,308.6,324.6,297.9,326.4z"/>
		<path d="M345.8,166.4c-10.2,1.8-19.9,3.4-30.3,5.2c0.6-5,1.1-9.8,1.7-15.1c10-1.7,20-3.4,30.3-5.2
			C347,156.5,346.4,161.4,345.8,166.4z"/>
		<path d="M334.9,357.5c-0.5,4.7-1.1,9.4-1.6,14.2c-10.3,1.8-20.2,3.5-30.4,5.2c0.5-4.8,1.1-9.5,1.6-14.2
			C314.8,360.9,324.6,359.2,334.9,357.5z"/>
		<path d="M310.1,407.5c1.8-3.1,5.3-1.9,9.3-2.1c3.1-0.1,6.7-1.7,10.6-2.8c-0.6,4.8-1,8.9-1.5,13.3c-6.4,1.1-12.6,2.2-19.2,3.3
			c-0.1-1.1-0.2-2.3-0.4-3.5c-0.3,0-0.5,0.1-0.8,0.1c-0.5,1.2-1,2.4-1.6,3.9c-2.8,0.5-5.5,1-8.7,1.5c0.5-4.2,0.9-8.4,1.5-13.5
			C303.3,407.6,306.7,407.6,310.1,407.5z"/>
		<path d="M307.9,404.9c-3,0.5-5.4,0.9-8.3,1.4c0.4-3.8,0.8-7.5,1.3-12c3.8-0.2,7.2-0.5,10.6-0.7c-0.1-0.1-0.3-0.2-0.4-0.3
			c6.5-1.3,13-2.6,20.1-4c-0.5,4.1-0.9,7.9-1.3,11.8c-6.3,1.1-12.3,2.1-18.8,3.2c-0.2-0.9-0.4-1.8-0.7-3.4
			C309.3,402.6,308.6,403.7,307.9,404.9z"/>
		<path d="M306.4,444.3c-0.1-1-0.2-1.9-0.4-2.8c-1.4,4.4-6.2,4.1-10.9,4.8c0.4-3.8,0.8-7.4,1.3-11.9c3.7-0.1,6.9-0.2,10.1-0.3
			c-0.2,0.4-0.5,0.7-0.7,1.1c1.5-0.9,3.5-2.7,4.3-2.7c5.3,0.4,10.9-2.6,16.6-2.7c-0.4,3.7-0.8,7.4-1.3,11.3
			C319.1,442.1,313.1,443.1,306.4,444.3z"/>
		<path d="M325.6,443.4c-0.2,1.6-0.3,3.3-0.6,5.1c-0.2,1.4-0.5,2.7-0.9,4.7c-5.7,1-11.2,2.1-16.6,2.7c-1.5,0.2-2.6-1-3-1.2
			c-3.1,1.2-6.5,2.6-11,4.4c0.5-4.4,0.9-7.7,1.2-10.5C305,446.9,314.8,445.3,325.6,443.4z"/>
		<path d="M296.4,433.7c0.5-4.1,0.8-7.2,1.2-10.9c10.2-0.3,20.3-3.7,30.4-5c-0.4,3.4-0.7,6.6-1.2,10.3c-6.7-0.4-15,4.4-19.6,1.5
			C304.2,430.8,300.7,432.1,296.4,433.7z"/>
		<path d="M302.2,475.6c-3.5,1.2-6.7,2.3-10.8,3.7c0.4-3.7,0.7-6.5,1-8.9c10.2-1.8,20.1-3.4,30.4-5.2c-0.3,2.3-0.6,5-0.9,8.4
			C315.2,473.5,307.4,477.7,302.2,475.6z"/>
		<path d="M293.7,683.6c-4,4-7.3,4.4-10.5,2.1c-3.7,2.9-7.5,4.7-10.9,1.7c-3.8,3.6-7.5,4.3-9.4,3.1c-5,0.7-8.1,1.1-11.2,1.5
			c0.3-1.3,0.4-3.5,1-3.7c2.6-0.8,5.5-1.1,8.2-0.9c3.9-2.3,7.6-3.9,11.1-1.2c3.9-3.1,7.6-4.6,10.7-1.7c3.7-2.8,7.4-5.2,10.7-1.9
			c3.9-2.9,7.7-5,10-3c4.4-0.8,7.5-1.3,10.5-1.8c-0.2,1.4-0.1,3.8-0.7,4c-2.7,0.8-5.5,1.1-8.3,1
			C301.1,684.9,297.3,686.4,293.7,683.6z"/>
		<path d="M291.2,481.6c10.8-1.8,20.4-3.5,30.4-5.2c-0.3,2.4-0.6,5-0.9,8.3c-6.7-0.5-14.7,4.2-19.6,1.7c-3.2,1.1-6.6,2.3-10.8,3.8
			C290.6,486.6,290.9,483.9,291.2,481.6z"/>
		<path d="M289.1,500.3c0-2.3-0.1-3.3-0.1-4.4c0.1-1.3,0.3-2.7,0.4-4c10.6-1.8,20.5-3.5,30.8-5.3c-0.3,2.3-0.6,4.9-0.9,8
			c-6.7-0.3-14.4,3.9-20.1,1.7C296.9,497.3,293.6,498.6,289.1,500.3z"/>
		<path d="M304,465c-4.1,1.3-7.5,2.4-11.5,3.7c0.4-3.3,0.7-5.7,0.9-8.1c10.2-1.7,20-3.4,30.4-5.2c-0.3,2.2-0.5,4.7-0.8,7.2
			C309.7,466,304.9,466.4,304,465z"/>
		<path d="M359.3,166c2.9-0.5,5.6-1,8.6-1.5c-0.9,7.9-1.7,15.5-2.7,23.6c-2.8,0.6-5.4,1.1-8.6,1.7
			C357.5,181.9,358.3,174.1,359.3,166z"/>
		<path d="M348.2,167.8c2.9-0.5,5.4-0.9,8.3-1.4c-0.9,7.8-1.8,15.5-2.7,23.6c-2.8,0.5-5.3,0.9-8.3,1.4
			C346.4,183.6,347.3,175.9,348.2,167.8z"/>
		<path d="M345.4,193.3c3-0.5,5.4-0.9,8.2-1.4c-0.9,7.8-1.7,15.3-2.6,23.2c-2.6,0.5-5.2,0.9-8.2,1.4
			C343.6,209,344.5,201.3,345.4,193.3z"/>
		<path d="M362.5,213.3c-3.3,0.6-6,1-9,1.5c0.9-7.8,1.7-15.4,2.6-23.3c3.1-0.5,5.8-1,9-1.5C364.2,197.8,363.4,205.4,362.5,213.3z"/>
		<path d="M350.8,238.5c3.1-0.5,5.7-1,8.8-1.5c-0.8,6.9-1.5,13.7-2.4,20.8c-3,0.5-5.7,1-8.8,1.5C349.2,252.4,350,245.7,350.8,238.5z
			"/>
		<path d="M346,259.8c-3.1,0.5-5.5,0.9-8.3,1.4c0.8-7,1.6-13.8,2.4-20.9c2.8-0.5,5.4-0.9,8.3-1.4C347.6,245.9,346.8,252.6,346,259.8
			z"/>
		<path d="M342.5,218.6c3-0.5,5.4-0.9,8.3-1.4c-0.8,6.6-1.5,13.1-2.2,19.8c-2.8,0.5-5.4,0.9-8.3,1.4
			C341,231.8,341.7,225.4,342.5,218.6z"/>
		<path d="M351,236.6c0.8-6.7,1.5-13.2,2.2-19.8c2.9-0.5,5.5-1,8.7-1.5c-0.7,6.5-1.5,13-2.2,19.8C356.9,235.6,354.3,236,351,236.6z"
			/>
		<path d="M341.3,301.2c-3.2,0.5-5.6,1-8.3,1.4c0.7-6.3,1.4-12.5,2.1-18.9c2.8-0.5,5.3-0.9,8.3-1.4
			C342.7,288.5,342,294.7,341.3,301.2z"/>
		<path d="M352.6,299.2c-3.2,0.5-5.8,1-8.8,1.5c0.7-6.4,1.4-12.5,2.1-18.9c3-0.5,5.6-1,8.8-1.5C354,286.5,353.3,292.7,352.6,299.2z"
			/>
		<path d="M345.7,262c-0.7,6.4-1.4,12.3-2.1,18.4c-2.8,0.5-5.3,0.9-8.2,1.4c0.7-6,1.4-12.1,2.1-18.4
			C340,262.9,342.6,262.5,345.7,262z"/>
		<path d="M357.2,260c-0.7,6.2-1.4,12-2.1,18.3c-3,0.5-5.7,1-8.9,1.5c0.7-6,1.4-12,2.1-18.3C351.3,261,354,260.5,357.2,260z"/>
		<path d="M343.7,302.7c3.1-0.5,5.7-1,8.8-1.5c-0.6,5.5-1.2,10.8-1.8,16.4c-3.1,0.5-5.7,1-8.8,1.5
			C342.5,313.7,343,308.3,343.7,302.7z"/>
		<path d="M339.1,319.5c-2.7,0.5-5.1,0.9-8.1,1.4c0.6-5.3,1.2-10.6,1.8-16.3c2.4-0.4,4.9-0.8,8.1-1.4
			C340.3,308.6,339.7,314,339.1,319.5z"/>
		<path d="M341.6,320.9c3.2-0.5,5.6-1,8.7-1.5c-0.6,5.4-1.2,10.7-1.8,16.3c-2.7,0.5-5.5,0.9-8.7,1.5
			C340.3,331.8,340.9,326.5,341.6,320.9z"/>
		<path d="M348.5,337.8c-0.6,5.2-1.1,10.1-1.7,15.4c-3,0.5-5.7,1-8.9,1.5c0.6-5,1.1-10,1.7-15.4
			C342.2,338.9,344.9,338.4,348.5,337.8z"/>
		<path d="M360.9,149.1c3.1-0.5,5.9-1,9-1.5c-0.6,5.1-1.1,9.9-1.7,14.9c-3.1,0.5-5.8,1-9,1.5C359.8,159,360.4,154.1,360.9,149.1z"/>
		<path d="M356.7,164.6c-3,0.5-5.4,0.9-8.3,1.4c0.6-5,1.1-10,1.7-15.1c2.8-0.5,5.4-0.9,8.3-1.4C357.9,154.5,357.3,159.3,356.7,164.6
			z"/>
		<path d="M337.5,356.9c3.2-0.5,5.7-1,8.7-1.5c-0.5,4.7-1.1,9.3-1.6,14.2c-2.8,0.5-5.5,0.9-8.7,1.5
			C336.4,366.4,337,361.8,337.5,356.9z"/>
		<path d="M301.9,363.1c-0.5,4.7-1.1,9.3-1.6,14.2c-2.7,0.5-5.1,0.9-8.1,1.4c0.5-4.7,1-9.3,1.6-14.2
			C296.4,364.1,299,363.7,301.9,363.1z"/>
		<path d="M330.8,415.4c0.5-4.3,0.9-8.3,1.4-12.7c3-0.5,5.8-1,9-1.5c-0.5,4.2-0.9,8.3-1.4,12.7C337,414.3,334.3,414.8,330.8,415.4z"
			/>
		<path d="M288.7,410.1c2.9-0.5,5.3-0.9,8.1-1.4c-0.5,4.4-1,8.6-1.5,13c-2.7,0.5-5.1,0.9-8.1,1.4
			C287.7,418.8,288.2,414.6,288.7,410.1z"/>
		<path d="M285.6,436.8c3-0.5,5.4-0.9,8.2-1.4c-0.4,3.7-0.8,7.3-1.3,11.2c-2.5,0.4-5.1,0.9-8.2,1.4
			C284.7,444.3,285.2,440.7,285.6,436.8z"/>
		<path d="M329.3,429.3c3.2-0.6,5.8-1,8.9-1.5c-0.4,3.7-0.8,7.3-1.3,11.1c-2.9,0.5-5.7,1-8.9,1.5
			C328.5,436.8,328.9,433.2,329.3,429.3z"/>
		<path d="M332.5,400.7c0.4-3.9,0.9-7.6,1.3-11.4c3.1-0.5,5.8-1,9-1.5c-0.4,3.9-0.8,7.5-1.3,11.4
			C338.4,399.6,335.8,400.1,332.5,400.7z"/>
		<path d="M296.9,406.8c-2.6,0.5-5,0.9-8,1.4c0.4-3.8,0.8-7.6,1.3-11.6c2.7-0.5,5.1-0.9,8-1.4C297.8,399,297.4,402.8,296.9,406.8z"
			/>
		<path d="M300.1,288.4c-0.8,7.1-1.4,12.9-2.2,18.6c-0.1,0.6-1.5,1.3-2.2,2c-0.9-0.4-2.5-0.7-2.4-1.3c0.4-5.2,1-10.4,1.8-15.7
			C295.2,291.4,297.4,290.4,300.1,288.4z"/>
		<path d="M354.5,298.5c0.7-6,1.4-12.1,2-18.1c0.5-0.3,1.1-0.7,1.6-1c1,0.6,2.8,1.1,2.8,1.9c-0.3,4.9-0.8,9.9-1.7,14.9
			c-0.1,0.9-2.1,2-3.2,3C355.6,298.9,355.1,298.7,354.5,298.5z"/>
		<path d="M284,450c2.9-0.5,5.3-0.9,8.2-1.4c-0.4,3.3-0.7,6.6-1.1,10.1c-2.6,0.5-5.2,0.9-8.2,1.4C283.3,456.6,283.6,453.4,284,450z"
			/>
		<path d="M326.6,452.6c0.4-3.4,0.7-6.5,1.1-9.9c2.8-0.5,5.6-1,8.9-1.5c-0.4,3.2-0.7,6.4-1.1,9.9C332.5,451.6,329.7,452,326.6,452.6
			z"/>
		<path d="M367.4,188.8c3.9,3.1,1.7,21.5-2.8,24.6C365.6,205.2,366.5,197.4,367.4,188.8z"/>
		<path d="M309.6,199.5c-0.9,7.7-1.8,15.5-2.6,23.5c-1.2-0.1-2.9,0-2.9-0.2c0.7-7.6,1.6-15.2,2.5-22.9
			C307.6,199.8,308.6,199.6,309.6,199.5z"/>
		<path d="M344.8,385.3c0.5-4.8,1-9.3,1.6-13.8c6.3-2.4,5.6,0.3,5.6,2.4C351.9,383.5,351.6,384,344.8,385.3z"/>
		<path d="M338.4,425.7c-3.2,0.5-5.8,1-8.9,1.5c0.4-3.2,0.7-6.3,1.1-9.7c2.9-0.5,5.7-1,8.9-1.5C339.2,419.3,338.8,422.3,338.4,425.7
			z"/>
		<path d="M272.1,678.4c8.7-1.5,15.4-2.8,22.2-3.7c1.7-0.2,3.3,0.4,4.9,0.7c-1.9,0.8-3.7,1.9-5.5,2.3c-6.8,1.3-13.6,2.5-20.4,3.5
			c-1.7,0.2-3.3-0.4-4.9-0.7C270.1,679.5,271.8,678.6,272.1,678.4z"/>
		<path d="M285.6,434.6c0.4-3.2,0.7-6.2,1.1-9.5c2.8-0.5,5.3-0.9,8.3-1.4c-0.3,3-0.7,6.1-1.1,9.5C291.5,433.6,289,434.1,285.6,434.6
			z"/>
		<path d="M270.5,693.4c9-1.5,16.1-2.8,23.1-3.9c1.4-0.2,2.7,0.3,4.1,0.5c-1.5,0.8-3,2.1-4.4,2.4c-7,1.4-14.1,2.6-21.1,3.6
			c-1.9,0.3-3.6-0.2-5.4-0.3C268.4,694.7,270.1,693.6,270.5,693.4z"/>
		<path d="M288.1,394.7c-5,1.8-6.5,1.1-6.1-1.5c0.6-3.6,0.8-7.1,1.3-10.8c3.8-1.5,6.5-2.4,6.1,0.6
			C289,386.9,288.6,390.7,288.1,394.7z"/>
		<path d="M297.4,310.9c-0.6,5.2-1.2,10.4-1.8,15.6c-0.5,0.4-1,0.7-1.4,1.1c-1.2-0.6-3.4-1-3.4-1.8c0.1-3.9,0.6-7.9,1.4-12
			c0.2-1,2.1-2.3,3.2-3.4C296.1,310.5,296.7,310.7,297.4,310.9z"/>
		<path d="M354.5,300.8c5.3-0.5,5.3-0.5,3.5,12.1c-0.3,1.9,0.3,4.1-5.4,4.1C353.2,311.7,353.8,306.3,354.5,300.8z"/>
		<path d="M353.7,335.5c-1.1-0.7-3.2-1.1-3.1-2c0.2-4.6,0.9-9.3,1.4-14c0.6-0.4,1.3-0.7,1.9-1.1c1.1,0.7,3.1,1.2,3.1,2.1
			c-0.2,4.5-0.9,9.1-1.4,13.6C354.9,334.6,354.3,335.1,353.7,335.5z"/>
		<path d="M288.4,345.7c0.5-4.6,0.9-9.1,1.7-13.7c0.1-0.8,2.1-1.9,3.2-2.9c0.7,0.7,2,1.2,1.9,2c-0.2,3.8-0.6,7.7-1.4,11.6
			c-0.2,1-2.3,2.3-3.5,3.5C289.7,346.1,289,345.9,288.4,345.7z"/>
		<path d="M364.6,246.4c-0.3,2.9-0.5,5.8-1.1,8.7c-0.1,0.7-1.7,1.5-2.7,2.3c-0.6-0.5-1.7-0.9-1.6-1.5c0.5-5.8,1.2-11.5,2-17.4
			c0.1-0.6,1.7-1.5,2.6-2.3c0.5,0.5,1.5,0.9,1.5,1.6c-0.1,2.9-0.6,5.8-0.9,8.7C364.5,246.4,364.5,246.4,364.6,246.4z"/>
		<path d="M299.4,257.6c0.3-2.8,0.4-5.5,1-8.3c0.2-0.8,1.6-1.8,2.5-2.7c0.6,0.6,1.6,1.1,1.6,1.9c-0.5,5.5-1.1,11-1.9,16.5
			c-0.1,0.8-1.7,1.8-2.6,2.7c-0.6-0.7-1.7-1.4-1.7-2.3c0-2.6,0.5-5.2,0.8-7.8C299.2,257.6,299.3,257.6,299.4,257.6z"/>
		<path d="M324.4,472.8c0.3-2.8,0.6-5.5,1-8.5c2.9-0.5,5.7-1,8.9-1.5c-0.3,2.8-0.6,5.5-1,8.5C330.4,471.8,327.8,472.2,324.4,472.8z"
			/>
		<path d="M355.3,336.5c-0.6,5.4-1.2,10.5-1.8,15.5c-4.2,1.7-5.2,1-5.1-1.4C348.8,339,349.2,337.8,355.3,336.5z"/>
		<path d="M324.1,672.5c-2.9,0.5-5.9,1.1-8.7,1.4c-1.2,0.1-2.1-0.5-3.2-0.8c1.1-0.7,2.2-1.9,3.2-2.1c6.5-1.3,13-2.4,19.5-3.4
			c1.1-0.2,2.1,0.5,3.2,0.8c-1.3,0.7-2.6,1.9-3.9,2.2C330.9,671.5,327.5,671.9,324.1,672.5z"/>
		<path d="M280.5,480.3c0.3-2.9,0.6-5.5,1-8.4c2.8-0.5,5.4-0.9,8.4-1.4c-0.3,2.7-0.6,5.4-1,8.4C286.3,479.3,283.7,479.7,280.5,480.3
			z"/>
		<path d="M323.1,484.4c0.4-3.4,0.7-6,1-9.2c3.1-0.2,7.9-1.2,8.3-0.5c1,1.8,0.6,4.5-0.7,6.7C331.3,482.4,326.8,483.2,323.1,484.4z"
			/>
		<path d="M286.4,363.2c0.6-4.9,1.1-9.8,1.7-14.9c3.7-1.5,5.6-1.5,5.2,1.1c-0.5,3.7-0.6,7.4-1.5,11.2c-0.2,1-2.5,2.2-3.7,3.3
			C287.5,363.7,286.9,363.4,286.4,363.2z"/>
		<path d="M242.1,686.5c-3.4,0.6-6.8,1.3-10.1,1.7c-0.9,0.1-1.6-0.6-2.4-0.9c0.9-0.6,1.8-1.7,2.6-1.9c7-1.3,13.9-2.5,20.9-3.6
			c0.9-0.1,1.6,0.6,2.4,0.9c-1.1,0.7-2.2,1.8-3.3,2C248.9,685.5,245.5,685.9,242.1,686.5C242.1,686.5,242.1,686.5,242.1,686.5z"/>
		<path d="M240.7,701.4c-3.4,0.6-6.8,1.3-10.1,1.7c-1.1,0.1-1.8-0.7-2.7-1.1c1-0.6,2-1.6,2.9-1.8c6.7-1.3,13.5-2.4,20.2-3.4
			c1-0.2,1.8,0.7,2.7,1.1c-1,0.6-1.9,1.5-2.9,1.8C247.5,700.4,244.1,700.9,240.7,701.4z"/>
		<path d="M324.6,684.1c3.1-0.5,6.3-1.2,9.4-1.5c0.9-0.1,1.6,0.6,2.4,0.9c-0.9,0.6-1.8,1.7-2.6,1.9c-7,1.3-13.9,2.5-20.9,3.6
			c-0.9,0.1-1.6-0.6-2.4-1c1.1-0.7,2.2-1.8,3.3-2C317.4,685.2,321,684.7,324.6,684.1C324.6,684.1,324.6,684.1,324.6,684.1z"/>
		<path d="M280.7,483c2.4-0.4,4.8-0.8,7.7-1.3c-0.3,2.7-0.6,5.3-0.9,8.2c-2.4,0.5-4.6,0.9-7.7,1.5
			C280.1,488.7,280.4,486.1,280.7,483z"/>
		<path d="M366.2,214.3c0.5,0.5,1.4,1,1.3,1.6c-0.4,5.4-0.9,10.7-1.6,16.1c-0.1,0.7-1.4,1.6-2.2,2.5c-0.7-0.3-1.9-0.5-1.9-0.9
			c0.6-6.2,1.3-12.5,2-18.7C364.6,214.7,365.4,214.5,366.2,214.3z"/>
		<path d="M290.7,371.9c-0.2,1.8-0.1,3.6-0.7,5.4c-0.3,0.8-2.1,1.7-3.2,2.5c-0.8-0.4-2.4-0.8-2.4-1.4c0.2-3.7,0.6-7.4,1.3-11.2
			c0.1-0.6,2.1-1.9,3.1-2c0.9-0.1,2.3,0.6,2.4,1.3C291.3,368.2,290.9,370.1,290.7,371.9z"/>
		<path d="M307.3,224.3c-0.7,6.6-1.4,12.8-2.3,19.1c-0.1,0.4-1.4,1.2-2.2,1.5c-0.4,0.2-1.7-0.2-1.7-0.5c0.9-6.3,2-12.7,3.1-19.1
			C304.2,225.2,305,225,307.3,224.3z"/>
		<path d="M352.9,361.2c-0.2,1.8-0.1,3.6-0.7,5.4c-0.3,0.8-2.1,1.7-3.2,2.6c-0.8-0.4-2.4-0.8-2.4-1.4c0.2-3.7,0.6-7.4,1.3-11.2
			c0.1-0.6,2.1-1.9,3.1-2c1-0.1,2.4,0.6,2.4,1.2C353.6,357.6,353.2,359.4,352.9,361.2z"/>
		<path d="M326.5,454.4c3.2-0.6,5.7-1,8.7-1.5c-0.3,2.6-0.6,5-0.9,7.8c-2.6,0.5-5.4,0.9-8.7,1.5C326,459.7,326.2,457.2,326.5,454.4z
			"/>
		<path d="M321.9,493.6c0.3-2.7,0.6-5,0.9-7.7c3-0.5,5.7-1,9-1.5c-0.3,2.5-0.5,4.9-0.9,7.7C327.9,492.6,324.9,493.1,321.9,493.6z"/>
		<path d="M372.2,163.8c-0.9,7.9-1.8,15.8-2.7,23.7c-0.6,0.1-1.2,0.2-1.8,0.3c0.9-7.9,1.8-15.8,2.7-23.7
			C371,164,371.6,163.9,372.2,163.8z"/>
		<path d="M279.2,493.3c2.8-0.5,5.3-0.9,8.2-1.4c-0.3,2.6-0.6,5.1-0.9,7.9c-2.6,0.5-5.2,0.9-8.2,1.4
			C278.6,498.5,278.9,496,279.2,493.3z"/>
		<path d="M362.2,268.3c-0.3,2.4-0.4,4.7-0.9,7.1c-0.2,0.8-1.5,1.7-2.3,2.5c-0.7-0.5-2.1-0.9-2-1.6c0.3-4.8,0.9-9.7,1.6-14.5
			c0.1-0.7,1.5-1.7,2.3-2.5c0.7,0.7,2,1.2,2,2C362.9,263.5,362.4,265.9,362.2,268.3z"/>
		<path d="M290,468.4c-2.8,0.5-5.4,0.9-8.3,1.4c0.3-2.6,0.6-5.1,0.9-7.8c2.8-0.5,5.3-0.9,8.3-1.4C290.6,463.2,290.3,465.7,290,468.4
			z"/>
		<path d="M301.2,278.3c-0.3,2.6-0.5,5.2-1,7.9c-0.1,0.6-1.4,1.4-2.2,2.1c-0.7-0.4-2-0.7-2-1.2c0.4-5.1,1-10.2,1.7-15.4
			c0.1-0.6,1.5-1.4,2.2-2.1c0.7,0.5,2,1,2,1.7C301.9,273.6,301.5,276,301.2,278.3C301.3,278.3,301.2,278.3,301.2,278.3z"/>
		<path d="M307.6,198.1c0.9-7.9,1.8-15.8,2.7-23.7c0.8-0.1,1.5-0.3,2.2-0.4c0.1,7.7-1.4,15.7-2.3,23.5
			C309.4,197.7,308.5,197.9,307.6,198.1z"/>
		<path d="M340.7,482.5c-0.3,3-0.6,5.4-0.9,8.1c-2.4,0.4-4.5,0.8-7,1.2c0.3-2.6,0.6-5,0.9-7.8C335.8,483.6,337.9,483.1,340.7,482.5z
			"/>
		<path d="M268.7,503.1c0.3-3.1,0.6-5.5,0.9-8.1c2.5-0.4,4.6-0.8,7-1.2c-0.3,2.6-0.6,5-0.9,7.8C273.6,502,271.5,502.5,268.7,503.1z"
			/>
		<path d="M370.3,162.2c0.6-5,1.1-10,1.7-15c0.5-0.1,1.1-0.2,1.6-0.3c-0.6,5-1.1,10-1.7,15C371.4,162,370.8,162.1,370.3,162.2z"/>
		<path d="M314.3,157c-0.6,5-1.1,10-1.7,15c-0.6,0.1-1.3,0.2-1.9,0.4c-0.8-4.7,1-10,1.4-15C312.8,157.3,313.6,157.2,314.3,157z"/>
		<path d="M305.8,676.4c-1.8-0.7-3.1-1.2-4.4-1.7c1.4-0.7,2.9-1.8,4.2-2c1.8-0.2,3.5,0.3,5.2,0.4C309.3,674.1,308,675,305.8,676.4z"
			/>
		<path d="M304.6,686.7c2,0.7,3.2,1.2,4.4,1.6c-1.8,0.8-3.7,1.9-5.5,2.3c-1.3,0.3-2.6-0.4-3.9-0.6
			C301.1,689,302.6,688.1,304.6,686.7z"/>
		<path d="M261.5,683.9c-1.6-0.7-2.8-1.1-3.9-1.6c1.5-0.7,3.2-1.9,4.7-2.1c1.4-0.2,2.7,0.5,4.1,0.8
			C265,681.8,263.6,682.6,261.5,683.9z"/>
		<path d="M260.3,698.8c-1.9-0.6-3.1-1-4.4-1.4c1.5-0.8,3-2,4.4-2.2c1.5-0.3,2.9,0.3,4.3,0.6C263.4,696.7,262.1,697.5,260.3,698.8z"
			/>
		<path class="st0" d="M141,654c1.7-9.1,3-18.2,5.4-27.4c1.8-6.8,6.7-13.6,15.3-19.6c11.9-8.4,26.8-9.4,31.3-2.1
			c0.9,1.4,1,3.3,0.3,5.1c-0.4,1.1-2.9,2.9-4.6,3.3c-1.8,0.5-4.6,0.3-5.5-0.5c-0.9-0.7-0.8-2.8,0.3-3.7c4.4-3.4,5-5.8,0.6-7.4
			c-4-1.4-12.5,0.4-15.9,4.1c-4.4,4.7-9.3,10-10.3,14.7c-3,13.5-3.6,26.7-6.5,40.2c-1.8,8.4-4.8,17.1-9.4,25.6
			c-2.8,5.2-9,10.7-15.3,15.3c-7.1,5.3-18.1,7.3-25.3,5.7c-7.7-1.8-10.6-5.9-8.3-11.9c0.8-2.1,4.3-5.1,7.4-6.4
			c1.9-0.8,6.4,0.4,7.8,1.7c2.4,2.1-0.7,4.7-4.9,6.7c-4.6,2.3-3.7,4.2-2.1,5.9c4.3,4.6,15.5,2.7,23-4.1c9.2-8.3,13.5-16.9,14.8-25.4
			c1-6.7,1.5-13.3,2.3-20C141.4,654,141.1,654,141,654z"/>
		<path class="st0" d="M427.4,598.5c0.3-8.2,1.5-16.6,0.7-24.5c-0.4-4.2-3.4-8-7.1-10.9c-1.9-1.5-7.8-1.4-12-0.6
			c-6.6,1.2-9,5.4-5.9,8.3c1.1,1,0.9,3.1,0,4.6c-0.5,0.8-4.7,2.3-5.7,2.1c-2-0.5-4-1.8-4-3.2c0.2-7.1,12.6-14.5,23.8-14.5
			c7.7,0,12.7,2.3,16.1,6c5.4,5.8,6.1,13.1,5.5,20.7c-1.1,14.2-2.7,28.5-3.3,42.6c-0.3,6.7,3.7,12.1,10,16.1
			c5.7,3.7,15.7,1.8,21.3-3.7c2.9-2.9,3.9-5.1-0.8-6.4c-2.1-0.6-3.6-3.2-2.7-4.9c0.8-1.5,5.4-4.2,7.7-4.4c2.7-0.2,5.9,1.2,6.8,2.7
			c2.5,4.1-2.6,11.5-10,15.7c-8.1,4.6-18.3,6.3-25.8,3.9c-10.6-3.4-14.8-10.3-15.6-18.1c-1.1-10.1-0.5-20.7-0.7-31.1
			C426.2,598.8,426.8,598.6,427.4,598.5z"/>
		<path class="st0" d="M372.6,76.9c-5.1,0.8-8.8-1.3-8.4-4.9c0.3-3.1,5-6.6,10.1-7.4c4.9-0.8,9.1,1.3,8.6,4.4
			C382.2,72.7,377.7,76.1,372.6,76.9z"/>
		<path class="st0" d="M339.7,76.4c-0.5,3.5-5.1,7.1-10.2,7.9c-5.2,0.8-9.3-1.7-8.6-5.2c0.6-2.9,5.4-6.3,10-7
			C335.7,71.2,340.1,73.4,339.7,76.4z"/>
		<path class="st0" d="M385.9,41.9c-0.4,3.1-5.3,6.6-10.2,7.4c-5.1,0.8-8.9-1.2-8.4-4.4c0.5-3.1,5.5-6.5,10.4-7.2
			C382.3,37,386.3,39.1,385.9,41.9z"/>
		<path class="st0" d="M327.7,99.8c4.9-0.9,9,0.9,8.8,3.8c-0.2,3.2-4.6,6.5-10,7.4c-5.2,0.9-9-0.7-8.8-3.7
			C317.9,104.2,322.5,100.8,327.7,99.8z"/>
		<path class="st0" d="M342.7,49.1c-0.3,3.1-5.2,6.7-10.1,7.5c-4.7,0.8-8.8-1.2-8.6-4c0.2-3,5.1-6.6,10.2-7.5
			C338.9,44.3,342.9,46.2,342.7,49.1z"/>
		<path class="st0" d="M379.2,96.8c-0.5,3.1-4.6,6-9.8,6.9c-5.5,0.9-9.1-0.9-8.3-4.3c0.8-3.5,4.5-5.8,9.9-6.9
			C376.4,91.4,379.8,93.4,379.2,96.8z"/>
	</g>
</g>
</svg>
